<svg width="240" height="150" viewBox="0 0 240 150" fill="none" xmlns="http://www.w3.org/2000/svg"><path d="M200.241 100.441c.141.614 4.107.661 4.674 3.305s0 39.189 0 39.189l-4.674.236zm-163.366.378c-.141.614-4.485.661-5.099 3.305s0 39.189 0 39.189l5.1.236z" fill="#CE5400"/><path d="M39.425 86.466c-.047-.897 1.794-.284 2.597.094 2.785 1.275 9.112 3.305 20.869 2.786 23.466-.992 22.9 4.863 23.75 15.77.755 9.537.85 32.578.85 38.055a1.17 1.17 0 0 1-1.181 1.181H69.643a1.17 1.17 0 0 1-1.18-1.181l.141-39.141a1.17 1.17 0 0 0-1.18-1.181l-25.166.284c-.614 0-1.133-.472-1.18-1.133z" fill="url(#a)"/><path d="M39.755 97.561c8.735 0 22.758 1.133 30.03-1.463 7.223-2.597 5.382 13.739 5.382 13.739l.189 34.468h-8.263s1.133-40.134.047-41.172c-.85-.85-17.989-.284-24.977 0-1.605.047-2.596-.425-2.455-2.408v-3.164z" fill="url(#b)"/><path d="M28.801 43.358s2.786-6.563 14.354-7.554 36.97 16.053 36.97 16.053l9.49 32.484s-24.741-3.258-36.78 1.464-22.806-8.499-22.806-8.499-10.435-25.213-1.228-33.948" fill="#fff"/><path d="M129.181 123.955h-19.452v18.744h19.452z" fill="#045758"/><path d="M168.323 31.318q1.841 1.912 3.824 2.975c-2.171-1.086-4.06-2.597-5.524-4.533.52.614 1.181 1.039 1.7 1.558" fill="url(#c)"/><path d="M230.931 142.794c-1.228 0-1.936-.425-1.889-1.7.236-5.477-.378-76.395-.283-78.52.141-2.832-.472-5.523-1.417-8.12-1.794-4.439-4.627-8.027-8.735-10.577-2.644-1.794-5.618-2.88-8.782-2.927-1.983 0-3.352-.708-4.627-2.125-2.691-3.069-6.279-4.532-10.198-5.335-.425-.094-.992.047-1.228-.472 4.061-8.074 4.061-8.121 4.013-14.4-.141-3.306-1.369-6.28-2.927-9.16-.803-.898-1.464-1.89-2.314-2.74a27 27 0 0 1-2.266-2.407c-9.207-6.894-21.766-5.335-28.848 3.635-2.22 2.786-3.872 5.95-4.108 9.632.094 1.37.094 2.692.047 4.061-.236 6.846 4.533 14.873 11.615 17.47.519.188 1.133.236 1.605.755-1.747.756-3.399 1.511-5.099 2.172-.189.047-.33.142-.472.236-1.464.661-2.786 1.7-4.533 1.464-1.369 0-2.691.047-4.06 0-3.258-.095-6.516.236-9.727-.19-.991-.188-1.699-.849-2.408-1.416-2.927-2.313-6.279-3.73-9.962-4.296-.85-.142-1.747 0-2.691-.378.661-.991 1.463-1.652 2.171-2.455 2.786-3.21 3.919-7.035 4.58-11.143.425-8.026-2.266-14.495-9.065-19.075-4.297-2.691-8.971-3.494-13.976-2.691-5.902.991-10.34 4.155-13.362 9.301-2.738 5.1-3.683 10.435-2.124 16.1 1.369 3.636 3.069 7.083 6.09 9.727-.519.52-.897.425-1.227.425-4.816.236-9.16 1.747-12.701 5.1-.803.755-1.747.944-2.786.896-3.352 0-6.752-.283-10.104.048-4.863.519-8.451-2.22-12.654-4.014 6.044-2.502 8.688-4.58 11.19-8.593 1.322-2.597 2.267-5.288 2.597-8.168.047-1.747 0-3.494 0-5.194-.094-1.7-.66-3.305-1.133-4.91-2.22-5.194-5.855-8.924-11.001-11.238C60.53-1.874 50.19.534 44.902 6.955c-4.297 5.194-5.288 11.19-4.58 17.611.33 2.739 1.652 5.147 3.069 7.46.472.803.567 1.228-.614 1.37-4.721.519-8.64 2.644-11.71 6.28-.66.802-1.463 1.18-2.454 1.18-.709 0-1.417 0-2.125.094-11.52 1.7-18.13 13.268-18.084 24.222.095 6.751.142 59.727.048 74.978 0 2.313-.19 2.408-2.597 2.455-1.747.047-3.541-.331-5.194.614a2.3 2.3 0 0 0-.142.33v1.511a48 48 0 0 0 2.456 3.872c2.124-.425 4.296-.095 6.42-.142 20.162-.142 40.323-.094 60.484-.094.897 0 1.747.141 2.597.33.566.095 1.133.142 1.747.047 6.374-.094 12.748-.708 19.122-.33 4.721.283 9.443.33 14.165.33h52.125c1.417.095 2.786 0 4.203.142.472-.047.849-.142 1.274-.378.897-.236 1.747-.141 2.644-.141h63.363c.992 0 2.031.047 3.022-.095.331-.094.661-.236.945-.33.519-1.747 1.038-3.541 1.133-5.383-1.747-.33-3.494-.094-5.288-.094M45.516 17.484c.047-.142.094-.33.141-.472.378-3.07 1.842-5.524 4.014-7.65 4.91-4.673 11.331-5.665 17.328-2.738 5.807 2.833 8.829 8.688 8.074 15.77-.331 6.469-6.138 11.852-11.993 13.032-6.988 1.841-14.92-2.975-16.95-10.293-.898-2.502-1.275-5.052-.614-7.649M36.78 98.553l-.047 22.805c0 6.893 0 13.74.047 20.633 0 .756-.33 1.039-1.039 1.039a106 106 0 0 0-3.872-.095l-.33.048c-5.713.047-11.426.047-17.14.094-.283 0-.613.047-.707-.33-.331-8.924-.142-17.848-.19-26.772 0-2.124.095-4.249.142-6.374 0-5.571-.189-11.095 0-16.667.142-4.485 3.4-8.074 7.79-9.301 4.911-1.37 9.963.142 12.655 3.73.708.944 1.369 1.936 1.7 3.069 1.368 2.597 1.085 5.382.99 8.12m28.376 43.721h-24.74v-35.931H65.11v35.931zm21.672-1.747c0 1.795-.708 2.456-2.502 2.456-4.439.047-8.877 0-13.315.094-1.747.047-2.22-.614-2.266-2.266-.52-11.946-.142-23.891-.284-35.837-.047-2.408-.047-2.455-2.502-2.455h-21.67c-.991 0-2.03.094-2.786-.708-.047-1.653-.094-3.305-.094-4.91.047-2.173-.142-4.344-.661-6.422-.661-.614-1.086-3.4-.567-3.966.236-.236.52-.283.803-.095 2.125 1.275 4.58 1.511 6.846 2.267l2.691.141c5.1-.047 9.821-1.794 14.732-2.832 3.73-.803 7.46-1.889 11.331-1.653 5.666.33 9.68 4.25 10.01 9.868.094 1.464.094 2.927.142 4.438v3.919c0 1.653.047 3.305.047 4.958.047 11.001.047 22.002.047 33.003m1.133-55.43c-1.463-.756-2.455-2.125-3.966-2.833-1.747-.803-3.352-1.747-5.382-1.795-2.456 0-2.975-1.086-2.03-3.4.613-1.416.141-2.927.283-4.343-.661-1.841-1.936-3.305-2.88-4.958-.945.048-1.322-.377-1.37-1.369-.047-1.841-.566-3.588-1.275-5.24-1.085-2.645-2.596-5.147-5.193-5.855-2.03-.567-2.928.85-2.786 3.021 0 .284.047.567.047.897.897.473 1.228 1.511 1.842 2.22.614.708-.19.85-.661.897-1.322.189-2.692.283-4.014.472-.897.52-1.983.047-2.88.66-2.597.615-5.193.567-7.79 0-2.833-1.604-3.116-4.249-2.833-7.129.66-.566.094-1.558.66-2.172.567-1.18 1.181-2.36 1.748-3.54-.095-.52-.283-1.04-.756-1.37-5.618.755-7.365 6.28-6.799 10.482.095.755.284 1.51.472 2.266 1.511 4.06 4.533 6.374 8.64 7.413 3.636.283 7.036-.708 10.483-1.605 10.34-2.739 10.529 5.949 10.529 5.996-.095 2.927-.567 4.958-3.022 5.996-2.03.85-4.202 1.086-6.327 1.511-1.18.33-2.36.709-3.588.472-5.95 1.795-11.946 2.408-17.659-.613-5.571-2.928-9.112-7.65-10.718-13.787-1.133-4.297-.614-8.688-.425-13.032.33-3.919 1.747-7.413 4.06-10.576 3.873-5.288 10.577-6.988 16.904-4.155 3.966 1.18 7.554 3.305 11.332 4.863 2.124.85 4.343 1.653 6.468 2.455 7.649 2.597 11.426 8.216 12.56 15.96.519 2.36.094 4.815.897 7.129 1.085 3.069 1.369 6.421 3.54 9.065l.142.142c1.464 1.416 2.078 3.305 2.692 5.146.283.756-.048 1.18-.945.709m17.328 57.886h-9.632v-22.711h9.632zm22.947-.284h-19.075v-22.38h19.075zM121.344 36.37c-5.194.945-9.821-.472-13.362-4.58-.236-.236-.331-.613-.52-.897-1.605-2.03-2.691-4.25-2.785-6.893-.567-5.288.472-9.963 4.579-13.693 4.061-3.683 10.341-4.674 15.582-2.313 4.863 2.172 8.309 7.601 8.215 12.89v2.502c.189 2.927-1.228 5.24-2.833 7.507-2.172 3.07-5.335 4.816-8.876 5.477m20.066 106.188h-9.632v-22.711h9.632zm25.685-111.334c-.519-.52-1.227-.945-1.652-1.511-1.983-2.597-3.116-5.808-3.116-9.302 0-8.451 6.893-15.345 15.345-15.345 8.451 0 15.345 6.894 15.345 15.345 0 1.936-.331 3.73-.992 5.43-.094.472-.33.944-.566 1.322-2.503 5.1-7.744 8.593-13.787 8.593h-.425c-2.267.048-4.391-.472-6.327-1.558q-2.054-1.062-3.825-2.974m2.125 70.398c-.094.142-.236.236-.378.33-.519 9.396-.661 38.198-.661 38.198s.284 2.219-1.888 2.219c-4.769.047-9.585 0-14.354.047-.944 0-1.605-.094-1.558-1.322.047-7.13-.094-38.528.095-42.635.047-2.409-.237-4.77.33-7.177.944-4.155 5.477-7.555 10.199-7.65 3.352-.046 6.563.662 9.773 1.465 4.958 1.18 9.821 2.644 14.92 3.021.331 0 1.794.095 1.842.095.377 0 6.374-.803 7.507-.992.519-.094 1.133.378 1.133.944-.094 3.636.472 7.272-.283 10.907v1.039c-.425 1.133-1.275 1.464-2.503 1.416a2024 2024 0 0 0-23.891 0c-.094.048-.189.095-.283.095m27.291 39.566h-24.694v-35.931h24.694zm25.732 1.889c-5.619-.094-11.237-.094-16.809-.142-1.605 0-3.258.048-4.863.048-.897-.095-.755-.756-.755-1.322 0-12.04.33-46.65.33-46.65s-.614-11.803 11.71-11.803c4.579 0 9.018 2.266 10.717 6.138.567 1.227 1.228 5.052 1.275 5.618 0 15.487 0 30.974.048 46.46 0 1.323-.331 1.7-1.653 1.653" fill="#0C0202"/><path d="M160.721 125.56h-.047v.047c.095 0 .236-.047.047-.047" fill="#0C0202"/><path d="M160.721 125.56h-.047v.047c.095 0 .236-.047.047-.047" fill="#0C0202"/><path d="M160.721 125.56h-.047v.047c.095 0 .236-.047.047-.047" fill="#0C0202"/><path d="M160.721 125.56h-.047v.047c.095 0 .236-.047.047-.047" fill="#0C0202"/><path d="M160.721 125.56h-.047v.047c.095 0 .236-.047.047-.047" fill="#0C0202"/><path d="M160.674 125.56c.095.047.236 0 .047 0z" fill="#0C0202"/><path d="M160.674 125.56c.095.047.236 0 .047 0z" fill="#0C0202"/><path d="M160.721 125.56h-.047v.047c.095 0 .236-.047.047-.047" fill="#0C0202"/><path d="M160.721 125.56h-.047v.047c.095 0 .236-.047.047-.047" fill="#0C0202"/><path d="M160.721 125.56h-.047v.047c.095 0 .236-.047.047-.047" fill="#0C0202"/><path d="M160.721 125.56h-.047v.047c.095 0 .236-.047.047-.047m44.43-21.483v.095h.047c0-.095-.047-.095-.047-.095" fill="#0C0202"/><path d="M205.151 104.077v.095h.047c0-.095-.047-.095-.047-.095" fill="#0C0202"/><path d="M205.151 104.077v.095h.047c0-.095-.047-.095-.047-.095" fill="#0C0202"/><path d="M205.151 104.077v.095h.047c0-.095-.047-.095-.047-.095" fill="#0C0202"/><path d="M205.151 104.077v.095h.047c0-.095-.047-.095-.047-.095" fill="#0C0202"/><path d="M205.151 104.077v.095h.047c0-.095-.047-.095-.047-.095" fill="#0C0202"/><path d="M205.151 104.077v.095h.047c0-.095-.047-.095-.047-.095" fill="#0C0202"/><path d="M205.151 104.077v.095h.047c0-.095-.047-.095-.047-.095" fill="#0C0202"/><path d="M205.151 104.077v.095h.047c0-.095-.047-.095-.047-.095" fill="#0C0202"/><path d="M205.151 104.077v.095h.047c0-.095-.047-.095-.047-.095" fill="#0C0202"/><path d="M205.151 104.077v.095h.047c0-.095-.047-.095-.047-.095" fill="#0C0202"/><path d="M205.151 104.077v.095h.047c0-.095-.047-.095-.047-.095" fill="#0C0202"/><path d="M205.151 104.077v.095h.047c0-.095-.047-.095-.047-.095" fill="#0C0202"/><path d="M205.151 104.077v.095h.047c0-.095-.047-.095-.047-.095" fill="#0C0202"/><path d="M205.151 104.077v.095h.047c0-.095-.047-.095-.047-.095" fill="#0C0202"/><path d="M205.151 104.077v.095h.047c0-.095-.047-.095-.047-.095" fill="#0C0202"/><path d="M205.151 104.077v.095h.047c0-.095-.047-.095-.047-.095" fill="#0C0202"/><path d="M205.151 104.077v.095h.047c0-.095-.047-.095-.047-.095" fill="#0C0202"/><path d="M205.151 104.077v.095h.047c0-.095-.047-.095-.047-.095" fill="#0C0202"/><path d="M205.151 104.077v.095h.047c0-.095-.047-.095-.047-.095" fill="#0C0202"/><path d="M205.151 104.077v.095h.047c0-.095-.047-.095-.047-.095" fill="#0C0202"/><path d="M205.151 104.077v.095h.047c0-.095-.047-.095-.047-.095" fill="#0C0202"/><path d="M205.151 104.077v.095h.047c0-.095-.047-.095-.047-.095" fill="#0C0202"/><path d="M205.151 104.077v.095h.047c0-.095-.047-.095-.047-.095M86.31 98.317c.047-.095.047-.19.094-.284-.094.095-.094.19-.094.284" fill="#0C0202"/><path d="M86.31 98.317c.047-.095.047-.19.094-.284-.094.095-.094.19-.094.284m118.841 5.76v.095h.047c0-.095-.047-.095-.047-.095" fill="#0C0202"/><path d="M205.151 104.077v.095h.047c0-.095-.047-.095-.047-.095M86.31 98.317c.047-.095.047-.19.094-.284-.094.095-.094.19-.094.284" fill="#0C0202"/><path d="M86.31 98.317c.047-.095.047-.19.094-.284-.094.095-.094.19-.094.284m118.841 5.76v.095h.047c0-.095-.047-.095-.047-.095" fill="#0C0202"/><path d="M205.151 104.077v.095h.047c0-.095-.047-.095-.047-.095M86.31 98.317c.047-.095.047-.19.094-.284-.094.095-.094.19-.094.284" fill="#0C0202"/><path d="M86.31 98.317c.047-.095.047-.19.094-.284-.094.095-.094.19-.094.284m118.841 5.76v.095h.047c0-.095-.047-.095-.047-.095" fill="#0C0202"/><path d="M205.151 104.077v.095h.047c0-.095-.047-.095-.047-.095M86.31 98.317c.047-.095.047-.19.094-.284-.094.095-.094.19-.094.284M43.297 40.053l-.142.094c.094-.047.142-.047.236-.047z" fill="#0C0202"/><path d="M86.31 98.317c.047-.095.047-.19.094-.284-.094.095-.094.19-.094.284m118.841 5.76v.095h.047c0-.095-.047-.095-.047-.095" fill="#0C0202"/><path d="M205.151 104.077v.095h.047c0-.095-.047-.095-.047-.095M43.297 40.053l-.142.094c.094-.047.142-.047.236-.047zM86.31 98.317c.047-.095.047-.19.094-.284-.094.095-.094.19-.094.284" fill="#0C0202"/><path d="m43.297 40.053-.142.094c.094-.047.142-.047.236-.047zM86.31 98.317c.047-.095.047-.19.094-.284-.094.095-.094.19-.094.284m118.841 5.76v.095h.047c0-.095-.047-.095-.047-.095" fill="#0C0202"/><path d="M205.151 104.077v.095h.047c0-.095-.047-.095-.047-.095M43.297 40.053l-.142.094c.094-.047.142-.047.236-.047zM86.31 98.317c.047-.095.047-.19.094-.284-.094.095-.094.19-.094.284" fill="#0C0202"/><path d="m43.297 40.053-.142.094c.094-.047.142-.047.236-.047zM86.31 98.317c.047-.095.047-.19.094-.284-.094.095-.094.19-.094.284m118.841 5.76v.095h.047c0-.095-.047-.095-.047-.095" fill="#0C0202"/><path d="M205.151 104.077v.095h.047c0-.095-.047-.095-.047-.095M43.297 40.053l-.142.094c.094-.047.142-.047.236-.047zM86.31 98.317c.047-.095.047-.19.094-.284-.094.095-.094.19-.094.284" fill="#0C0202"/><path d="m43.297 40.053-.142.094c.094-.047.142-.047.236-.047zM86.31 98.317c.047-.095.047-.19.094-.284-.094.095-.094.19-.094.284m118.841 5.76v.095h.047c0-.095-.047-.095-.047-.095" fill="#0C0202"/><path d="M205.151 104.077v.095h.047c0-.095-.047-.095-.047-.095M43.297 40.053l-.142.094c.094-.047.142-.047.236-.047zM86.31 98.317c.047-.095.047-.19.094-.284-.094.095-.094.19-.094.284" fill="#0C0202"/><path d="m43.297 40.053-.142.094c.094-.047.142-.047.236-.047zM86.31 98.317c.047-.095.047-.19.094-.284-.094.095-.094.19-.094.284m118.841 5.76v.095h.047c0-.095-.047-.095-.047-.095" fill="#0C0202"/><path d="M205.151 104.077v.095h.047c0-.095-.047-.095-.047-.095M43.297 40.053l-.142.094c.094-.047.142-.047.236-.047zM86.31 98.317c.047-.095.047-.19.094-.284-.094.095-.094.19-.094.284" fill="#0C0202"/><path d="m43.297 40.053-.142.094c.094-.047.142-.047.236-.047zM86.31 98.317c.047-.095.047-.19.094-.284-.094.095-.094.19-.094.284m118.841 5.76v.095h.047c0-.095-.047-.095-.047-.095" fill="#0C0202"/><path d="M205.151 104.077v.095h.047c0-.095-.047-.095-.047-.095M43.297 40.053l-.142.094c.094-.047.142-.047.236-.047zM86.31 98.317c.047-.095.047-.19.094-.284-.094.095-.094.19-.094.284" fill="#0C0202"/><path d="M205.151 104.124c.047-.047 0-.047 0-.094zM86.357 98.08c-.047.095-.047.19-.094.284.047-.142.094-.189.094-.283M43.155 40.147c.094-.047.142-.047.236-.047a.5.5 0 0 1-.142-.047z" fill="#0C0202"/><path d="M86.31 98.317c.047-.095.047-.19.094-.284-.094.095-.094.19-.094.284M43.297 40.053l-.142.094c.094-.047.142-.047.236-.047zm161.854 64.024v.095h.047c0-.095-.047-.095-.047-.095" fill="#0C0202"/><path d="M205.151 104.077v.095h.047c0-.095-.047-.095-.047-.095M86.31 98.317c.047-.095.047-.19.094-.284-.094.095-.094.19-.094.284M43.297 40.053l-.142.094c.094-.047.142-.047.236-.047z" fill="#0C0202"/><path d="M86.31 98.317c.047-.095.047-.19.094-.284-.094.095-.094.19-.094.284M43.297 40.053l-.142.094c.094-.047.142-.047.236-.047zm161.854 64.024v.095h.047c0-.095-.047-.095-.047-.095" fill="#0C0202"/><path d="M205.151 104.077v.095h.047c0-.095-.047-.095-.047-.095M86.31 98.317c.047-.095.047-.19.094-.284-.094.095-.094.19-.094.284M43.297 40.053l-.142.094c.094-.047.142-.047.236-.047z" fill="#0C0202"/><path d="M86.31 98.317c.047-.095.047-.19.094-.284-.094.095-.094.19-.094.284M43.297 40.053l-.142.094c.094-.047.142-.047.236-.047zm161.854 64.024v.095h.047c0-.095-.047-.095-.047-.095" fill="#0C0202"/><path d="M205.151 104.077v.095h.047c0-.095-.047-.095-.047-.095M86.31 98.317c.047-.095.047-.19.094-.284-.094.095-.094.19-.094.284M43.297 40.053l-.142.094c.094-.047.142-.047.236-.047z" fill="#0C0202"/><path d="M86.31 98.317c.047-.095.047-.19.094-.284-.094.095-.094.19-.094.284M43.297 40.053l-.142.094c.094-.047.142-.047.236-.047zm161.854 64.024v.095h.047c0-.095-.047-.095-.047-.095" fill="#0C0202"/><path d="M205.151 104.077v.095h.047c0-.095-.047-.095-.047-.095M86.31 98.317c.047-.095.047-.19.094-.284-.094.095-.094.19-.094.284M43.297 40.053l-.142.094c.094-.047.142-.047.236-.047z" fill="#0C0202"/><path d="M86.31 98.317c.047-.095.047-.19.094-.284-.094.095-.094.19-.094.284M43.297 40.053l-.142.094c.094-.047.142-.047.236-.047zm161.854 64.024v.095h.047c0-.095-.047-.095-.047-.095" fill="#0C0202"/><path d="M205.151 104.077v.095h.047c0-.095-.047-.095-.047-.095M86.31 98.317c.047-.095.047-.19.094-.284-.094.095-.094.19-.094.284M43.297 40.053l-.142.094c.094-.047.142-.047.236-.047z" fill="#0C0202"/><path d="M86.31 98.317c.047-.095.047-.19.094-.284-.094.095-.094.19-.094.284M43.297 40.053l-.142.094c.094-.047.142-.047.236-.047zm161.854 64.024v.095h.047c0-.095-.047-.095-.047-.095" fill="#0C0202"/><path d="M205.151 104.077v.095h.047c0-.095-.047-.095-.047-.095M86.31 98.317c.047-.095.047-.19.094-.284-.094.095-.094.19-.094.284" fill="#0C0202"/><path d="M86.31 98.317c.047-.095.047-.19.094-.284-.094.095-.094.19-.094.284m118.841 5.76v.095h.047c0-.095-.047-.095-.047-.095" fill="#0C0202"/><path d="M205.151 104.077v.095h.047c0-.095-.047-.095-.047-.095M86.31 98.317c.047-.095.047-.19.094-.284-.094.095-.094.19-.094.284" fill="#0C0202"/><path d="M86.31 98.317c.047-.095.047-.19.094-.284-.094.095-.094.19-.094.284m118.841 5.76v.095h.047c0-.095-.047-.095-.047-.095" fill="#0C0202"/><path d="M205.151 104.077v.095h.047c0-.095-.047-.095-.047-.095M86.31 98.317c.047-.095.047-.19.094-.284-.094.095-.094.19-.094.284" fill="#0C0202"/><path d="M86.31 98.317c.047-.095.047-.19.094-.284-.094.095-.094.19-.094.284m118.841 5.76v.095h.047c0-.095-.047-.095-.047-.095" fill="#0C0202"/><path d="M205.151 104.077v.095h.047c0-.095-.047-.095-.047-.095" fill="#0C0202"/><path d="M205.151 104.077v.095h.047c0-.095-.047-.095-.047-.095" fill="#0C0202"/><path d="M205.151 104.077v.095h.047c0-.095-.047-.095-.047-.095" fill="#0C0202"/><path d="M205.151 104.077v.095h.047c0-.095-.047-.095-.047-.095" fill="#0C0202"/><path d="M205.151 104.077v.095h.047c0-.095-.047-.095-.047-.095" fill="#0C0202"/><path d="M205.151 104.077v.095h.047c0-.095-.047-.095-.047-.095" fill="#0C0202"/><path d="M205.151 104.077v.095h.047c0-.095-.047-.095-.047-.095" fill="#0C0202"/><path d="M205.151 104.077v.095h.047c0-.095-.047-.095-.047-.095" fill="#0C0202"/><path d="M205.151 104.077v.095h.047c0-.095-.047-.095-.047-.095" fill="#0C0202"/><path d="M205.151 104.077v.095h.047c0-.095-.047-.095-.047-.095" fill="#0C0202"/><path d="M205.151 104.077v.095h.047c0-.095-.047-.095-.047-.095" fill="#0C0202"/><path d="M205.151 104.077v.095h.047c0-.095-.047-.095-.047-.095" fill="#0C0202"/><path d="M205.151 104.077v.095h.047c0-.095-.047-.095-.047-.095" fill="#0C0202"/><path d="M205.151 104.077v.095h.047c0-.095-.047-.095-.047-.095" fill="#0C0202"/><path d="M205.151 104.077v.095h.047c0-.095-.047-.095-.047-.095" fill="#0C0202"/><path d="M205.151 104.077v.095h.047c0-.095-.047-.095-.047-.095" fill="#0C0202"/><path d="M205.151 104.077v.095h.047c0-.095-.047-.095-.047-.095" fill="#0C0202"/><path d="M205.151 104.077v.095h.047c0-.095-.047-.095-.047-.095" fill="#0C0202"/><path d="M205.151 104.077v.095h.047c0-.095-.047-.095-.047-.095" fill="#0C0202"/><path d="M205.151 104.077v.095h.047c0-.095-.047-.095-.047-.095" fill="#0C0202"/><path d="M205.151 104.077v.095h.047c0-.095-.047-.095-.047-.095" fill="#0C0202"/><path d="M205.151 104.077v.095h.047c0-.095-.047-.095-.047-.095" fill="#0C0202"/><path d="M205.151 104.077v.095h.047c0-.095-.047-.095-.047-.095" fill="#0C0202"/><path d="M205.151 104.077v.095h.047c0-.095-.047-.095-.047-.095" fill="#0C0202"/><path d="M205.151 104.077v.095h.047c0-.095-.047-.095-.047-.095" fill="#0C0202"/><path d="M205.151 104.077v.095h.047c0-.095-.047-.095-.047-.095" fill="#0C0202"/><path d="M205.151 104.077v.095h.047c0-.095-.047-.095-.047-.095" fill="#0C0202"/><path d="M205.151 104.077v.095h.047c0-.095-.047-.095-.047-.095" fill="#0C0202"/><path d="M205.151 104.077v.095h.047c0-.095-.047-.095-.047-.095" fill="#0C0202"/><path d="M205.151 104.077v.095h.047c0-.095-.047-.095-.047-.095" fill="#0C0202"/><path d="M205.151 104.077v.095h.047c0-.095-.047-.095-.047-.095" fill="#0C0202"/><path d="M205.151 104.077v.095h.047c0-.095-.047-.095-.047-.095" fill="#0C0202"/><path d="M205.151 104.077v.095h.047c0-.095-.047-.095-.047-.095" fill="#0C0202"/><path d="M205.151 104.077v.095h.047c0-.095-.047-.095-.047-.095" fill="#0C0202"/><path d="M205.151 104.077v.095h.047c0-.095-.047-.095-.047-.095" fill="#0C0202"/><path d="M205.151 104.077v.095h.047c0-.095-.047-.095-.047-.095" fill="#0C0202"/><path d="M205.151 104.077v.095h.047c0-.095-.047-.095-.047-.095" fill="#0C0202"/><path d="M205.151 104.077v.095h.047c0-.095-.047-.095-.047-.095" fill="#0C0202"/><path d="M205.151 104.077v.095h.047c0-.095-.047-.095-.047-.095" fill="#0C0202"/><path d="M205.151 104.077v.095h.047c0-.095-.047-.095-.047-.095" fill="#0C0202"/><path d="M205.151 104.077v.095h.047c0-.095-.047-.095-.047-.095" fill="#0C0202"/><path d="M205.151 104.077v.095h.047c0-.095-.047-.095-.047-.095" fill="#0C0202"/><path d="M205.151 104.077v.095h.047c0-.095-.047-.095-.047-.095" fill="#0C0202"/><path d="M205.151 104.077v.095h.047c0-.095-.047-.095-.047-.095" fill="#0C0202"/><path d="M205.151 104.077v.095h.047c0-.095-.047-.095-.047-.095" fill="#0C0202"/><path d="M205.151 104.077v.095h.047c0-.095-.047-.095-.047-.095" fill="#0C0202"/><path d="M205.151 104.077v.095h.047c0-.095-.047-.095-.047-.095" fill="#0C0202"/><path d="M205.151 104.077v.095h.047c0-.095-.047-.095-.047-.095" fill="#0C0202"/><path d="M205.151 104.077v.095h.047c0-.095-.047-.095-.047-.095" fill="#0C0202"/><path d="M205.151 104.077v.095h.047c0-.095-.047-.095-.047-.095" fill="#0C0202"/><path d="M205.151 104.077v.095h.047c0-.095-.047-.095-.047-.095" fill="#0C0202"/><path d="M205.151 104.077v.095h.047c0-.095-.047-.095-.047-.095" fill="#0C0202"/><path d="M205.151 104.077v.095h.047c0-.095-.047-.095-.047-.095" fill="#0C0202"/><path d="M205.151 104.077v.095h.047c0-.095-.047-.095-.047-.095" fill="#0C0202"/><path d="M205.151 104.077v.095h.047c0-.095-.047-.095-.047-.095" fill="#0C0202"/><path d="M205.151 104.077v.095h.047c0-.095-.047-.095-.047-.095" fill="#0C0202"/><path d="M205.151 104.077v.095h.047c0-.095-.047-.095-.047-.095" fill="#0C0202"/><path d="M205.151 104.077v.095h.047c0-.095-.047-.095-.047-.095" fill="#0C0202"/><path d="M205.151 104.077v.095h.047c0-.095-.047-.095-.047-.095" fill="#0C0202"/><path d="M205.151 104.077v.095h.047c0-.095-.047-.095-.047-.095" fill="#0C0202"/><path d="M205.151 104.077v.095h.047c0-.095-.047-.095-.047-.095" fill="#0C0202"/><path d="M205.151 104.077v.095h.047c0-.095-.047-.095-.047-.095" fill="#0C0202"/><path d="M205.151 104.077v.095h.047c0-.095-.047-.095-.047-.095" fill="#0C0202"/><path d="M205.151 104.077v.095h.047c0-.095-.047-.095-.047-.095" fill="#0C0202"/><path d="M205.151 104.077v.095h.047c0-.095-.047-.095-.047-.095" fill="#0C0202"/><path d="M205.151 104.077v.095h.047c0-.095-.047-.095-.047-.095" fill="#0C0202"/><path d="M205.151 104.077v.095h.047c0-.095-.047-.095-.047-.095" fill="#0C0202"/><path d="M205.151 104.077v.095h.047c0-.095-.047-.095-.047-.095" fill="#0C0202"/><path d="M205.151 104.077v.095h.047c0-.095-.047-.095-.047-.095" fill="#0C0202"/><path d="M205.151 104.077v.095h.047c0-.095-.047-.095-.047-.095" fill="#0C0202"/><path d="M205.151 104.077v.095h.047c0-.095-.047-.095-.047-.095" fill="#0C0202"/><path d="M205.151 104.077v.095h.047c0-.095-.047-.095-.047-.095" fill="#0C0202"/><path d="M205.151 104.077v.095h.047c0-.095-.047-.095-.047-.095" fill="#0C0202"/><path d="M205.151 104.077v.095h.047c0-.095-.047-.095-.047-.095" fill="#0C0202"/><path d="M205.151 104.077v.095h.047c0-.095-.047-.095-.047-.095" fill="#0C0202"/><path d="M205.151 104.077v.095h.047c0-.095-.047-.095-.047-.095" fill="#0C0202"/><path d="M205.151 104.077v.095h.047c0-.095-.047-.095-.047-.095" fill="#0C0202"/><path d="M205.151 104.077v.095h.047c0-.095-.047-.095-.047-.095" fill="#0C0202"/><path d="M205.151 104.077v.095h.047c0-.095-.047-.095-.047-.095" fill="#0C0202"/><path d="M205.151 104.077v.095h.047c0-.095-.047-.095-.047-.095" fill="#0C0202"/><path d="M205.151 104.077v.095h.047c0-.095-.047-.095-.047-.095" fill="#0C0202"/><path d="M205.151 104.077v.095h.047c0-.095-.047-.095-.047-.095" fill="#0C0202"/><path d="M205.151 104.077v.095h.047c0-.095-.047-.095-.047-.095" fill="#0C0202"/><path d="M205.151 104.077v.095h.047c0-.095-.047-.095-.047-.095" fill="#0C0202"/><path d="M205.151 104.077v.095h.047c0-.095-.047-.095-.047-.095" fill="#0C0202"/><path d="M205.151 104.077v.095h.047c0-.095-.047-.095-.047-.095" fill="#0C0202"/><path d="M205.151 104.077v.095h.047c0-.095-.047-.095-.047-.095" fill="#0C0202"/><path d="M205.151 104.077v.095h.047c0-.095-.047-.095-.047-.095" fill="#0C0202"/><path d="M205.151 104.077v.095h.047c0-.095-.047-.095-.047-.095" fill="#0C0202"/><path d="M205.151 104.077v.095h.047c0-.095-.047-.095-.047-.095" fill="#0C0202"/><path d="M205.151 104.077v.095h.047c0-.095-.047-.095-.047-.095" fill="#0C0202"/><path d="M205.151 104.077v.095h.047c0-.095-.047-.095-.047-.095" fill="#0C0202"/><path d="M205.151 104.077v.095h.047c0-.095-.047-.095-.047-.095" fill="#0C0202"/><path d="M205.151 104.077v.095h.047c0-.095-.047-.095-.047-.095" fill="#0C0202"/><path d="M205.151 104.077v.095h.047c0-.095-.047-.095-.047-.095" fill="#0C0202"/><path d="M205.151 104.077v.095h.047c0-.095-.047-.095-.047-.095" fill="#0C0202"/><path d="M205.151 104.077v.095h.047c0-.095-.047-.095-.047-.095" fill="#0C0202"/><path d="M205.151 104.077v.095h.047c0-.095-.047-.095-.047-.095" fill="#0C0202"/><path d="M205.151 104.077v.095h.047c0-.095-.047-.095-.047-.095" fill="#0C0202"/><path d="M205.151 104.077v.095h.047c0-.095-.047-.095-.047-.095" fill="#0C0202"/><path d="M205.151 104.077v.095h.047c0-.095-.047-.095-.047-.095" fill="#0C0202"/><path d="M205.151 104.077v.095h.047c0-.095-.047-.095-.047-.095" fill="#0C0202"/><path d="M205.151 104.077v.095h.047c0-.095-.047-.095-.047-.095" fill="#0C0202"/><path d="M205.151 104.077v.095h.047c0-.095-.047-.095-.047-.095" fill="#0C0202"/><path d="M205.151 104.077v.095h.047c0-.095-.047-.095-.047-.095" fill="#0C0202"/><path d="M205.151 104.077v.095h.047c0-.095-.047-.095-.047-.095" fill="#0C0202"/><path d="M205.151 104.077v.095h.047c0-.095-.047-.095-.047-.095" fill="#0C0202"/><path d="M205.151 104.077v.095h.047c0-.095-.047-.095-.047-.095" fill="#0C0202"/><path d="M205.151 104.077v.095h.047c0-.095-.047-.095-.047-.095" fill="#0C0202"/><path d="M205.151 104.077v.095h.047c0-.095-.047-.095-.047-.095" fill="#0C0202"/><path d="M205.151 104.077v.095h.047c0-.095-.047-.095-.047-.095" fill="#0C0202"/><path d="M205.151 104.077v.095h.047c0-.095-.047-.095-.047-.095" fill="#0C0202"/><path d="M205.151 104.077v.095h.047c0-.095-.047-.095-.047-.095" fill="#0C0202"/><path d="M205.151 104.077v.095h.047c0-.095-.047-.095-.047-.095" fill="#0C0202"/><path d="M205.151 104.077v.095h.047c0-.095-.047-.095-.047-.095" fill="#0C0202"/><path d="M205.151 104.077v.095h.047c0-.095-.047-.095-.047-.095" fill="#0C0202"/><path d="M205.151 104.077v.095h.047c0-.095-.047-.095-.047-.095" fill="#0C0202"/><path d="M205.151 104.077v.095h.047c0-.095-.047-.095-.047-.095" fill="#0C0202"/><path d="M205.151 104.077v.095h.047c0-.095-.047-.095-.047-.095" fill="#0C0202"/><path d="M205.151 104.077v.095h.047c0-.095-.047-.095-.047-.095" fill="#0C0202"/><path d="M205.151 104.077v.095h.047c0-.095-.047-.095-.047-.095" fill="#0C0202"/><path d="M205.151 104.077v.095h.047c0-.095-.047-.095-.047-.095" fill="#0C0202"/><path d="M205.151 104.077v.095h.047c0-.095-.047-.095-.047-.095" fill="#0C0202"/><path d="M205.151 104.077v.095h.047c0-.095-.047-.095-.047-.095" fill="#0C0202"/><path d="M205.151 104.077v.095h.047c0-.095-.047-.095-.047-.095" fill="#0C0202"/><path d="M205.151 104.077v.095h.047c0-.095-.047-.095-.047-.095" fill="#0C0202"/><path d="M205.151 104.077v.095h.047c0-.095-.047-.095-.047-.095" fill="#0C0202"/><path d="M205.151 104.077v.095h.047c0-.095-.047-.095-.047-.095" fill="#0C0202"/><path d="M205.151 104.077v.095h.047c0-.095-.047-.095-.047-.095" fill="#0C0202"/><path d="M205.151 104.077v.095h.047c0-.095-.047-.095-.047-.095" fill="#0C0202"/><path d="M205.151 104.077v.095h.047c0-.095-.047-.095-.047-.095" fill="#0C0202"/><path d="M205.151 104.077v.095h.047c0-.095-.047-.095-.047-.095" fill="#0C0202"/><path d="M205.151 104.077v.095h.047c0-.095-.047-.095-.047-.095" fill="#0C0202"/><path d="M205.151 104.077v.095h.047c0-.095-.047-.095-.047-.095" fill="#0C0202"/><path d="M205.151 104.077v.095h.047c0-.095-.047-.095-.047-.095" fill="#0C0202"/><path d="M205.151 104.077v.095h.047c0-.095-.047-.095-.047-.095" fill="#0C0202"/><path d="M205.151 104.077v.095h.047c0-.095-.047-.095-.047-.095" fill="#0C0202"/><path d="M205.151 104.077v.095h.047c0-.095-.047-.095-.047-.095" fill="#0C0202"/><path d="M205.151 104.077v.095h.047c0-.095-.047-.095-.047-.095" fill="#0C0202"/><path d="M205.151 104.077v.095h.047c0-.095-.047-.095-.047-.095" fill="#0C0202"/><path d="M205.151 104.077v.095h.047c0-.095-.047-.095-.047-.095" fill="#0C0202"/><path d="M205.151 104.077v.095h.047c0-.095-.047-.095-.047-.095" fill="#0C0202"/><path d="M102.788 98.364c1.133-3.21 3.541-5.194 6.516-6.61 6.468-3.07 12.984-5.95 19.405-9.113 5.147-2.502 10.576-4.532 15.109-8.026 3.683-2.833 6.138-6.422 5.902-11.38-.047-1.038.189-2.124.283-3.163.897 2.503.189 4.958-.047 7.46-.614 6.516-4.391 10.577-10.057 13.457-9.018 4.58-18.225 8.782-27.337 13.173-3.164 1.51-5.714 3.588-6.611 7.082-.613 2.408-.188 4.911-.236 7.413-1.794 1.039-3.682.755-5.524.236-.378-.378-.142-.661.189-.803 1.228-.472 1.228-1.511 1.228-2.597-.048-2.455-.284-4.957 1.18-7.129" fill="#045758"/><path d="M160.721 125.56h-.047v.047c.095 0 .236-.047.047-.047" fill="#8A0408"/><path d="M177.483 81.272c.755-.567 1.605-1.039 2.172-1.747 1.699-2.125 3.73-2.974 6.563-2.833 7.271.378 12.512-3.4 16.619-8.97 2.456-3.353 3.164-7.13 2.975-11.19-.047-.615-.283-1.323.283-1.842.142.094.425-.378.803 1.18.519 3.21.567 6.422-.094 9.585-.473 2.314-1.275 4.533-2.456 6.516-.897 1.416-1.841 2.833-3.163 3.966-1.18.991-2.125 2.219-3.447 3.116-4.485 3.069-9.301 4.344-14.731 3.258-1.841-.425-3.73-.378-5.524-1.039" fill="#A40303"/><path d="M146.321 108.704c-2.456.236-4.864.095-7.272-.047-1.038-.33-2.124-.189-3.163-.142-1.18.048-1.605-.472-1.605-1.558-.048-1.463-.095-2.974 0-4.438.236-3.21-.992-5.713-3.353-7.79-1.605-1.417-3.399-.756-1.511-1.842 1.228-.708 3.447-2.03 4.628-2.786.188-.047 1.227-.236 1.416-.236.425-.188.85-.283 1.275-.189.755.662-.095.898-.425 1.134-.661.519-.567.944 0 1.416.803.708 1.464 1.511 1.889 2.502 1.133 2.078 1.463 4.297 1.463 6.658 0 1.747.283 2.03 2.078 2.125 3.919.236 3.919.236 3.919-3.636 0-.897-.048-1.747.047-2.644 0-.85-.189-1.747.566-2.408.567 1.228.331 2.55.284 3.824-.095 3.353-.142 6.705-.236 10.057" fill="#0E9087"/><path d="M134.753 67.108c-3.022 2.266-6.469 3.777-9.821 5.43-4.344 2.077-8.688 4.201-13.079 6.232-4.296 2.03-8.735 3.871-12.842 6.327-3.92 2.313-6.61 5.665-7.65 10.15-.046.142-.188.284-.282.426-.284-.708-.19-1.464-.048-2.172.52-4.722 2.786-8.357 6.988-10.624 6.28-3.4 12.984-5.949 19.453-8.97 4.958-2.314 10.01-4.533 14.967-6.8.52-.236 1.039-.424 1.558-.66.661-.237 1.086-.19.756.66" fill="#F4FBF6"/><path d="M25.78 49.402c-.803 6.846-.33 13.692-.709 20.538.048 2.22.048 4.486.095 6.705 0 .708-.236 1.086-.992 1.086-4.107 0-7.649 1.558-10.718 4.155-.566-.472-.33-.992-.33-1.417.142-5.949-.189-11.898.189-17.847 0-8.97 6.043-16.478 13.74-16.903-.52 1.275-.898 2.502-1.275 3.683" fill="#FBCC7F"/><path d="M129.512 92.84s5.382 4.863 5.288 8.499c-.047 1.699.094 3.446 0 5.146-.094 1.511.472 1.983 1.889 1.889.755-.047 1.652-.331 2.36.33a36 36 0 0 1-7.129 0 216 216 0 0 0-.472-5.477c-.378-3.4-1.983-5.855-5.194-7.177-.33-.141-.708-.188-.897-.802 2.219-1.275 4.155-2.408 4.155-2.408" fill="#045155"/><path d="M186.548 69.232c-.189.047-.425.047-.614.094-1.747.284-3.494.048-5.241.142-.613.047-1.274-.189-1.888.189-2.172.803-3.589 2.36-4.297 4.58-1.936 1.228-3.494.142-5.005-.897-.85-.614-1.841.472-2.88 1.133-.614.378-1.888 2.502-1.133-1.605.472-3.4 4.108-6.28 7.932-5.808 2.172.236 4.297.756 6.422 1.228 1.983.425 3.966.708 5.949.566.425-.094.802-.283.755.378" fill="#FCFBDA"/><path d="M86.97 62.197c1.795 3.163 3.117 6.61 6.28 8.735 2.267 1.51 4.675 2.738 7.319 3.352.566.142 1.133.236 1.511.803-.897.897-2.22.991-3.21 1.7-1.937.66-3.59-.095-5.195-1.04-2.266-1.368-4.06-3.257-5.571-5.382-.708-.991-.52-2.172-.944-3.163-.047-.095-.047-.189-.047-.33-.378-1.606-.85-3.117-.142-4.675" fill="#08A69B"/><path d="M206.19 55.068c0-.142-.047-.237-.047-.378-1.511-6.28-4.816-11.19-10.907-13.881-2.172-1.417-4.675-1.464-7.13-1.653-.614-.047-1.322.189-1.888-.33 11.001-4.392 19.264 4.768 20.302 13.786.047.567.142 1.18.189 1.747-.189.236.189.897-.519.709" fill="#F7F8F1"/><path d="M106.424 42.65c-3.4 1.652-7.13 2.597-10.246 5.005-4.202 3.258-7.224 7.318-8.404 12.606-.095.33-.237.661-.331.992-.614-.472-.047-1.18-.472-1.653 1.038-6.516 4.013-11.757 9.868-15.109 1.888-1.086 3.919-1.652 6.043-1.936 1.181-.047 2.314-.236 3.542.095" fill="#F0F9F4"/><path d="M150.003 60.12c-.377-3.494-1.652-6.563-3.871-9.302-.378-.425-.803-1.464-1.322-.52-.331.52-.189.614-.709.284-1.133-.755-2.407-1.228-3.73-1.51-.188-.048-.33-.048-.519-.048-2.597.236-5.099.66-7.224 2.408-.472.378-1.18.66-.991 1.464 4.107 1.558 7.507 3.682 7.129 8.829.189-.33.331-.661.567-1.039.189.708.141 1.558.991 1.794 1.133.284 2.267.567 3.447.661 1.889.142 3.588-1.086 3.824-2.55.048-.377-.188-.944.378-1.038.661-.094.661.567.756.992.613 2.738-.425 4.957-2.078 6.987-2.219 2.739-5.099 4.77-8.215 6.28-10.435 5.005-20.964 9.82-31.351 14.967-3.825 1.889-7.319 4.391-8.357 9.019-.237.944-.945 1.652-1.89 1.605-1.368-.095-2.549.472-3.776.661-1.228.189-1.606.566-1.842 1.558-.566 2.077-.141 4.202-.236 6.28-.047.755.661.897 1.275.944 1.275.094 2.597.047 3.872.047.33 0 .613-.047.85-.047.991.094 2.03.142 3.021-.047.614-.756 2.361.141 2.172-1.795-.283-2.644-.047-5.288.52-7.932.047-.047.141-.094.188-.189 1.983-3.918 5.336-6.185 9.207-7.885 5.572-2.455 11.049-5.099 16.573-7.696 4.722-2.219 9.538-4.25 13.929-7.082 7.035-4.627 7.885-9.443 7.412-16.1" fill="#0CAC97"/><path d="M87.207 67.155c1.18 3.352 3.447 5.807 6.28 7.837 1.605 1.134 3.446 1.795 5.43 1.795-.52.377-1.181.613-1.512 1.133-1.369 1.936-2.832 1.416-4.39.283-3.778-2.738-5.808-6.374-5.808-11.048" fill="#075857"/><path d="M165.632 74.331c.755 1.322 1.416-1.652 2.03-2.313.33-.378.708-.897 1.086-.283 1.369 2.171 3.399 2.69 5.76 2.502 0 1.416 0 2.833-.047 4.25-.331.472-.803.519-1.275.424-2.361-.66-4.91-1.086-6.138-3.588-.472-.944-.803.094-1.416-.047.566.283-.095.708 0-.945" fill="#FBD693"/><path d="M157.511 58.609c-.472 1.369-.992 2.738-1.417 4.107-.141.378-.141.85-.661.898.095-8.263 4.438-14.307 12.276-17.14l1.983-.708c.897.756-.189.708-.425.85-2.927 1.747-5.854 3.447-8.074 6.09-1.51 1.795-3.021 3.59-3.682 5.903" fill="#F1EDD7"/><path d="M165.301 74.615c1.417-1.322 1.417-1.322 2.219.52.378.849.992 1.51 1.795 1.84 1.652.662 3.257 1.653 5.193 1.464-.33.756.945 1.464.095 2.267-1.936-.237-3.825-.52-5.666-1.134-2.455-.708-3.589-2.313-3.636-4.957" fill="#E7B861"/><path d="M80.125 48.268h6.043c-.897 1.653-1.747 3.164-2.644 4.816-1.133-1.558-1.936-3.258-3.4-4.816" fill="#F3DDA8"/><path d="M191.836 50.11c.284-.047.567-.047.85-.095 3.164 2.928 3.4 6.752 3.164 10.718 0 .425-.237.661-.614.756-.284 0-.331-.236-.425-.378.566-4.108.141-7.932-2.975-11.001" fill="#D06B4F"/><path d="M194.811 61.064a3 3 0 0 0 .425.378c-1.7 3.918-4.25 6.846-8.641 7.743-.236-.094-.472-.236-.708-.33 4.108-1.275 7.413-3.495 8.924-7.791" fill="#EEB899"/><path d="M154.961 50.44c-.472.85-.944 1.747-1.558 2.928-.85-1.606-1.605-2.88-2.314-4.202.048-.33.236-.614.567-.52 1.18.378 2.55.52 3.305 1.794" fill="#D27C26"/><path d="M154.961 50.44c-1.275-.472-2.361-1.51-3.872-1.274-.755-.85-.141-.898.52-.898h4.863c-.331.945-.992 1.511-1.511 2.172" fill="#F1D79B"/><path d="M142.166 87.788c-2.125-.189-3.542 1.416-5.336 2.077h-1.463c1.322-1.038 2.785-1.7 4.249-2.502.992-.52 1.841-.472 2.55.425" fill="#0E9278"/><path d="M57.32 62.858c-1.086 1.086-6.8 1.086-7.791 0 2.644.614 5.194.614 7.79 0" fill="#7C0C0B"/><path d="M134.753 67.107c0-.519-.378-.613-.756-.708.945-.566 1.936-1.086 2.881-1.652.991-.614 1.416-1.606 1.794-2.645.614.52.283 1.087 0 1.559-.945 1.605-2.125 2.833-3.919 3.446" fill="#B7E7DF"/><path d="M206.426 54.784c-.378-4.013-2.408-7.224-4.958-10.151-1.7-1.936-3.73-3.447-6.279-4.06h-.095c-2.502-1.842-6.988-1.936-8.924-1.795-37.489 8.877-34.467 38.811-35.836 41.786-1.181 1.18-1.889 2.644-2.691 4.06-.142.237-.095.614.141.803a.59.59 0 0 0 .803-.094c.897-1.228 3.163-3.305 3.163-3.305.048-.095 4.864-2.786 7.602-2.88.708 0 1.747 0 1.416-1.181-1.463-5.477.52-8.216.992-9.349 1.369-1.605 3.4-2.833 2.975-5.43.141-.33 2.502-8.12 6.657-8.12.755 0 2.927.047 2.975 2.785l.047.047c-.52 1.983-1.7 2.786-3.116 3.872 1.227-.094 2.171-.189 3.116-.236 3.022.803 6.043 1.558 9.112 1.983 2.55.33 4.769-.897 5.761-3.069 1.038-2.408.708-4.721-.52-6.94-.472-.85-.85-1.795-1.227-2.74-.567-1.463-.284-1.84 1.322-1.51.991.189 1.936.567 2.88.897.236.142.472.189.661.095 0 .047.047.094.047.141 2.739 3.21 3.541 6.846 2.55 10.907-1.7 3.919-4.439 6.705-8.688 7.696-.283.047-.519.189-.803.283-2.219.284-4.391-.283-6.563-.047-2.785.661-4.343 2.55-4.957 5.241-.095 1.228-.047 2.455-.047 3.683 0 .897.283 1.794.566 2.644.944.378 1.842.755 2.88.567 1.133-.095 2.031-.614 2.692-1.511 1.652-2.125 3.777-2.739 6.374-2.597 3.824.189 7.365-.803 10.482-3.07 5.901-4.296 9.868-9.631 9.254-17.374.047-.756.094-1.417.236-2.03m-17.045 5.666c-.142.047-.236.047-.33.047.094 0 .236-.047.33-.047" fill="url(#d)"/><path d="M145.66 43.075c4.674 0 9.348-.047 14.023-.047.377 0 .708 0 .991.283-4.721 0-9.49.047-14.212.047-.283 0-.614-.047-.802-.283" fill="#FCE1AB"/><path d="M90.795 108.704h5.76c-1.888.425-3.824.047-5.76.236-.094-.094-.094-.141 0-.236" fill="#09A495"/><path d="M60.2 62.197c-.803.803-1.842.755-2.88.661.897-.614 2.03-.142 2.88-.661" fill="#7C0C0B"/><path d="M46.696 55.776c.095-.756-.425-1.7.661-2.172-.566.614 0 1.605-.661 2.172" fill="#7E0E07"/><path d="M106.376 42.603c-1.18-.048-2.36-.048-3.494-.095 1.181-.378 2.361-.236 3.542-.236 0 .142 0 .236-.048.33" fill="#21D0B6"/><path d="M178.805 69.61c2.361-.756 4.769-.142 7.177-.33-2.408.802-4.816.141-7.177.33" fill="#EEB899"/><path d="M210.77 49.685c.802 6.846.33 13.692.708 20.539-.047 2.219-.047 4.485-.095 6.704 0 .709.237 1.086.992 1.086 4.108 0 7.649 1.558 10.718 4.155.566-.472.33-.991.33-1.416-.141-5.95.189-11.898-.188-17.848 0-8.97-6.044-16.478-13.74-16.903.472 1.275.85 2.503 1.275 3.683" fill="#FBCC7F"/><path d="M122.194 107.902c2.927-2.361 2.691-7.508 2.691-7.508h-12.796s-.236 5.147 2.881 7.508H90.418v5.099a2.52 2.52 0 0 0 2.502 2.502h51.04c1.416 0 2.549-1.133 2.549-2.502v-5.052h-24.315z" fill="#FDFCD8"/><path d="M59.255 75.37c1.417-.189 6.705.33 6.705-3.824 0 0 6.516 4.013 1.794 8.168 0 0-1.652 1.416-7.79 2.266l-3.4.52 1.558-4.108z" fill="#E7B861"/><path d="M65.582 71.215s3.73 2.408 3.825 4.91c.141 2.503-11.238 3.306-11.238 3.306l1.559-4.108s6.657.425 5.949-3.777z" fill="#FBD693"/><path d="M41.691 81.933c-9.915-3.258-20.397-24.269-5.193-37.442 14.117-12.229 39.944 4.297 42.588 15.062 3.069 12.7 7.035 19.122 10.482 24.694.472.755-.85 1.274-1.606.85-2.927-1.7-7.413-4.675-12.559-4.675 0 0 3.872-9.632-3.163-12.842 0 0-1.228-12.89-7.508-12.04 0 0-3.446 2.172 1.275 6.751 0 0-19.642 6.091-19.642-3.163s5.62-10.293.567-10.104c-5.052.189-8.782 12.418-2.314 17.753 6.47 5.335 15.676.283 16.432 8.31l.802 5.949c.047-.047-8.83 4.58-20.16.897" fill="url(#e)"/><path d="M58.217 81.178s-2.172-5.194-4.297-5.005c-2.077.189-20.822 3.258-24.269-21.2 0 0-6.09 22.191 13.079 27.527 10.718 3.021 15.487-1.322 15.487-1.322" fill="#A40303"/><path d="M197.833 87.41c0-1.18-1.228-1.936-2.267-1.416-2.219 1.038-7.743 2.785-20.208 2.36-17.753-.566-24.316-2.644-24.646 12.324-.284 14.778-.331 35.222-.095 41.171.047.85.708 1.511 1.558 1.511h14.401c.85 0 1.558-.708 1.558-1.558l.283-38.669c0-.85.709-1.558 1.559-1.558h24.74c.897 0 1.653-.756 1.558-1.7-.141-2.078-.283-5.43.189-6.705.473-1.274 1.37-3.871 1.37-5.76" fill="url(#f)"/><path d="m159.919 143.549 8.498-.094c.095 0 .189-.095.189-.189l.284-41.172c0-.094.094-.189.188-.189l27.291-.283c.094 0 .189-.094.189-.189v-8.688c0-.141-.142-.236-.284-.141-1.227.85-7.176 3.683-31.209-.095-.142 0-4.674-.33-4.958 6.091-.283 6.28-.283 41.927-.283 44.713-.047.189 0 .236.095.236" fill="#9D0101"/><path d="M146.085 50.44c-.095-.33-.378-.519-.614-.802-1.086-1.417-2.597-2.361-4.014-3.4-1.605-1.369-3.305-2.502-5.24-3.21-.048 0-.048-.048-.048-.048a10 10 0 0 0-3.163-.66c-7.649-.52-15.298-.331-22.947-.378-1.227 0-2.455.047-3.683.33l-.189.189.095.095c-1.369.047-2.502.85-3.73 1.227-4.391 1.37-8.027 4.013-10.907 7.507-1.983 2.408-3.541 5.1-4.108 8.263-.094.425-.377-.52-.566 0-.047.283-.142.614-.19.897-.188.52-.094 1.086-.094 1.605 2.503 7.508 7.838 11.568 15.44 12.985 2.455-.614 4.438-2.22 7.129-3.07-2.219-.85-4.154-1.463-5.901-2.454-3.589-2.078-5.477-5.478-5.053-8.972.52-3.871 3.07-6.515 7.319-7.648.755 0 1.511.047 2.266.047.661 0 .945.33.992.944.094 1.37 0 2.267-1.7 2.833-4.061 1.322-4.863 5.572-1.794 8.452.991.944 2.313 1.369 3.541 1.888 1.653.661 3.305 1.275 4.958 1.936.661.283 1.416.472 2.077.142 3.919-1.842 8.027-3.353 11.804-5.525 1.275-.519 2.644-.897 3.872-1.558 2.03-1.086 2.124-2.219.283-3.635-1.275-.992-2.739-1.747-4.108-2.644.189-1.18-1.133-2.644.661-3.541 1.086.236 2.125.472 3.211.708 0 0 8.215 2.502 7.129 8.83-.047.14-.047.235-.094.377-.095 2.691-2.314 3.588-4.155 4.721-5.43 3.542-11.473 5.902-17.186 8.782-5.289 2.644-10.766 4.864-16.006 7.602-4.533 2.36-8.358 5.336-9.821 10.246-.095.33-.19.708-.284 1.086a8 8 0 0 0-.141.85c-.047.189-.047.377-.095.566v.33c-.33 3.731-.472 11.521-.472 11.521l7.885.048c-.378-1.606.614-9.585.614-9.585v-.047c.142-.236.236-.52.33-.803.378-1.416 1.039-2.597 1.984-3.683 1.746-2.03 3.966-3.541 6.326-4.769 6.894-3.54 14.071-6.42 20.964-9.915 4.863-2.455 10.01-4.39 14.401-7.554 2.974-2.172 5.666-4.675 6.327-8.64.047-.378.094-.803.094-1.181.283-.142.425-.236.425-.236s.33-6.61-3.824-11.049m-36.923 6.091v-.094z" fill="url(#g)"/><path d="M133.997 90.101s4.58 3.305 4.769 8.782.236 9.066.236 9.066l7.507-.047V93.359s-1.18-7.27-6.279-6.327z" fill="url(#h)"/><path d="M128.237 120.319h-19.075v8.074h19.075z" fill="#CE5400"/><path d="M128.048 128.346h-19.075v14.306h19.075z" fill="#014341"/><path d="M141.594 142.446v-22.617h-8.546v22.617zm-42.678-22.127v11.332l4.722 3.022v8.404l1.652-.094v-22.664zM65.11 106.343H40.416v5.147H65.11zm131.353-.991H171.77v5.146h24.693zm-24.658 5.17v30.69h5.949v-30.69z" fill="#CE5400"/><path d="M118.794 37.692c7.901 0 14.306-6.405 14.306-14.306S126.695 9.08 118.794 9.08s-14.306 6.405-14.306 14.306 6.405 14.306 14.306 14.306" fill="#1ED9B7"/><path d="M104.488 19.987s2.313 8.073 13.787 8.073 14.778-7.224 14.778-7.224 1.889 16.148-12.559 16.809c-19.311.944-16.006-17.659-16.006-17.659" fill="#005B5C"/><path d="M178.474 35.662c7.901 0 14.307-6.405 14.307-14.306s-6.406-14.307-14.307-14.307-14.306 6.406-14.306 14.307c0 7.9 6.405 14.306 14.306 14.306" fill="#FF6035"/><path d="M167.52 31.224s7.98 2.691 14.495-6.705c6.516-9.396 2.503-16.242 2.503-16.242s14.165 8.924 7.271 19.925c-9.443 15.014-24.269 3.022-24.269 3.022" fill="url(#i)"/><path d="M47.357 13.518s-6.752 18.272 9.68 21.86c0 0 14.022 4.439 17.233-14.967 0 0-4.58 11.19-15.912 6.658-11.331-4.533-11-13.551-11-13.551" fill="#F99F39"/><path opacity=".61" d="M59.68 29.949c-6.468-.992-11.048-4.958-13.55-10.624-.567 5.666.566 13.787 10.953 16.006 0 0 11.71 3.683 16.195-10.434-4.674 5.477-10.434 5.571-13.598 5.052" fill="#C95C00"/><path d="M239.335 142.841c-.472 2.313-1.086 4.533-1.794 6.752H1.794A46 46 0 0 1 0 142.841z" fill="#0C0202"/><defs><linearGradient id="a" x1="39.42" y1="115.168" x2="87.529" y2="115.168" gradientUnits="userSpaceOnUse"><stop stop-color="#FF5529"/><stop offset="1" stop-color="#C50003"/></linearGradient><linearGradient id="b" x1="53.273" y1="123.628" x2="79.819" y2="107.041" gradientUnits="userSpaceOnUse"><stop stop-color="#C50003"/><stop offset="1" stop-color="#FF5529"/></linearGradient><linearGradient id="c" x1="169.421" y1="34.316" x2="169.421" y2="29.793" gradientUnits="userSpaceOnUse"><stop stop-color="#EBBE88"/><stop offset="1" stop-color="#FFFFE4"/></linearGradient><linearGradient id="d" x1="147.576" y1="62.171" x2="206.431" y2="62.171" gradientUnits="userSpaceOnUse"><stop stop-color="#C50003"/><stop offset="1" stop-color="#FF5529"/></linearGradient><linearGradient id="e" x1="28.866" y1="62.702" x2="89.681" y2="62.702" gradientUnits="userSpaceOnUse"><stop stop-color="#FF5529"/><stop offset="1" stop-color="#C50003"/></linearGradient><linearGradient id="f" x1="141.928" y1="130.728" x2="198.66" y2="87.978" gradientUnits="userSpaceOnUse"><stop stop-color="#C50003"/><stop offset="1" stop-color="#FF5529"/></linearGradient><linearGradient id="g" x1="97.261" y1="110.772" x2="127.587" y2="39.328" gradientUnits="userSpaceOnUse"><stop stop-color="#23D3BD"/><stop offset="1" stop-color="#0CA39B"/></linearGradient><linearGradient id="h" x1="136.878" y1="106.994" x2="144.875" y2="88.155" gradientUnits="userSpaceOnUse"><stop stop-color="#23D3BD"/><stop offset="1" stop-color="#0CA39B"/></linearGradient><linearGradient id="i" x1="167.517" y1="21.989" x2="193.684" y2="21.989" gradientUnits="userSpaceOnUse"><stop stop-color="#FF5529"/><stop offset="1" stop-color="#C50003"/></linearGradient></defs></svg>