<?xml version="1.0" encoding="UTF-8" standalone="no"?>
<svg
   viewBox="0 0 240 150"
   fill="none"
   version="1.1"
   id="svg165"
   sodipodi:docname="logo.svgz"
   xmlns:inkscape="http://www.inkscape.org/namespaces/inkscape"
   xmlns:sodipodi="http://sodipodi.sourceforge.net/DTD/sodipodi-0.dtd"
   xmlns="http://www.w3.org/2000/svg"
   xmlns:svg="http://www.w3.org/2000/svg">
  <sodipodi:namedview
     id="namedview167"
     pagecolor="#ffffff"
     bordercolor="#000000"
     borderopacity="0.25"
     inkscape:showpageshadow="2"
     inkscape:pageopacity="0.0"
     inkscape:pagecheckerboard="0"
     inkscape:deskcolor="#d1d1d1" />
  <defs
     id="defs47">
    <linearGradient
       id="a"
       x1="39.42"
       y1="115.168"
       x2="87.529"
       y2="115.168"
       gradientUnits="userSpaceOnUse">
      <stop
         stop-color="#FF5529"
         id="stop2" />
      <stop
         offset="1"
         stop-color="#C50003"
         id="stop4" />
    </linearGradient>
    <linearGradient
       id="b"
       x1="53.273"
       y1="123.628"
       x2="79.819"
       y2="107.041"
       gradientUnits="userSpaceOnUse">
      <stop
         stop-color="#C50003"
         id="stop7" />
      <stop
         offset="1"
         stop-color="#FF5529"
         id="stop9" />
    </linearGradient>
    <linearGradient
       id="c"
       x1="169.421"
       y1="34.316"
       x2="169.421"
       y2="29.793"
       gradientUnits="userSpaceOnUse">
      <stop
         stop-color="#EBBE88"
         id="stop12" />
      <stop
         offset="1"
         stop-color="#FFFFE4"
         id="stop14" />
    </linearGradient>
    <linearGradient
       id="d"
       x1="147.576"
       y1="62.171"
       x2="206.431"
       y2="62.171"
       gradientUnits="userSpaceOnUse">
      <stop
         stop-color="#C50003"
         id="stop17" />
      <stop
         offset="1"
         stop-color="#FF5529"
         id="stop19" />
    </linearGradient>
    <linearGradient
       id="e"
       x1="28.866"
       y1="62.702"
       x2="89.681"
       y2="62.702"
       gradientUnits="userSpaceOnUse">
      <stop
         stop-color="#FF5529"
         id="stop22" />
      <stop
         offset="1"
         stop-color="#C50003"
         id="stop24" />
    </linearGradient>
    <linearGradient
       id="f"
       x1="141.928"
       y1="130.728"
       x2="198.66"
       y2="87.978"
       gradientUnits="userSpaceOnUse">
      <stop
         stop-color="#C50003"
         id="stop27" />
      <stop
         offset="1"
         stop-color="#FF5529"
         id="stop29" />
    </linearGradient>
    <linearGradient
       id="g"
       x1="97.261"
       y1="110.772"
       x2="127.587"
       y2="39.328"
       gradientUnits="userSpaceOnUse">
      <stop
         stop-color="#23D3BD"
         id="stop32" />
      <stop
         offset="1"
         stop-color="#0CA39B"
         id="stop34" />
    </linearGradient>
    <linearGradient
       id="h"
       x1="136.878"
       y1="106.994"
       x2="144.875"
       y2="88.155"
       gradientUnits="userSpaceOnUse">
      <stop
         stop-color="#23D3BD"
         id="stop37" />
      <stop
         offset="1"
         stop-color="#0CA39B"
         id="stop39" />
    </linearGradient>
    <linearGradient
       id="i"
       x1="167.517"
       y1="21.989"
       x2="193.684"
       y2="21.989"
       gradientUnits="userSpaceOnUse">
      <stop
         stop-color="#FF5529"
         id="stop42" />
      <stop
         offset="1"
         stop-color="#C50003"
         id="stop44" />
    </linearGradient>
  </defs>
  <path
     d="M200.241 100.441c.141.614 4.107.661 4.674 3.305s0 39.189 0 39.189l-4.674.236zm-163.366.378c-.141.614-4.485.661-5.099 3.305s0 39.189 0 39.189l5.1.236z"
     fill="#CE5400"
     id="path49" />
  <path
     d="M39.425 86.466c-.047-.897 1.794-.284 2.597.094 2.785 1.275 9.112 3.305 20.869 2.786 23.466-.992 22.9 4.863 23.75 15.77.755 9.537.85 32.578.85 38.055a1.17 1.17 0 0 1-1.181 1.181H69.643a1.17 1.17 0 0 1-1.18-1.181l.141-39.141a1.17 1.17 0 0 0-1.18-1.181l-25.166.284c-.614 0-1.133-.472-1.18-1.133z"
     fill="url(#a)"
     id="path51" />
  <path
     d="M39.755 97.561c8.735 0 22.758 1.133 30.03-1.463 7.223-2.597 5.382 13.739 5.382 13.739l.189 34.468h-8.263s1.133-40.134.047-41.172c-.85-.85-17.989-.284-24.977 0-1.605.047-2.596-.425-2.455-2.408v-3.164z"
     fill="url(#b)"
     id="path53" />
  <path
     d="M28.801 43.358s2.786-6.563 14.354-7.554 36.97 16.053 36.97 16.053l9.49 32.484s-24.741-3.258-36.78 1.464-22.806-8.499-22.806-8.499-10.435-25.213-1.228-33.948"
     fill="#fff"
     id="path55" />
  <path
     d="M129.181 123.955h-19.452v18.744h19.452z"
     fill="#045758"
     id="path57" />
  <path
     d="M168.323 31.318q1.841 1.912 3.824 2.975c-2.171-1.086-4.06-2.597-5.524-4.533.52.614 1.181 1.039 1.7 1.558"
     fill="url(#c)"
     id="path59" />
  <path
     d="M 230.931 142.794 C 229.703 142.794 228.995 142.369 229.042 141.094 C 229.278 135.617 228.664 64.699 228.759 62.574 C 228.9 59.742 228.287 57.051 227.342 54.454 C 225.548 50.015 222.715 46.427 218.607 43.877 C 215.963 42.083 212.989 40.997 209.825 40.95 C 207.842 40.95 206.473 40.242 205.198 38.825 C 202.507 35.756 198.919 34.293 195 33.49 C 194.575 33.396 194.008 33.537 193.772 33.018 C 197.833 24.944 197.833 24.897 197.785 18.618 C 197.644 15.312 196.416 12.338 194.858 9.458 C 194.055 8.56 193.394 7.568 192.544 6.718 C 191.74 5.963 190.983 5.159 190.278 4.311 C 181.071 -2.583 168.512 -1.024 161.43 7.946 C 159.21 10.732 157.558 13.896 157.322 17.578 C 157.416 18.948 157.416 20.27 157.369 21.639 C 157.133 28.485 161.902 36.512 168.984 39.109 C 169.503 39.297 170.117 39.345 170.589 39.864 C 168.842 40.62 167.19 41.375 165.49 42.036 C 165.301 42.083 165.16 42.178 165.018 42.272 C 163.554 42.933 162.232 43.972 160.485 43.736 C 159.116 43.736 157.794 43.783 156.425 43.736 C 153.167 43.641 149.909 43.972 146.698 43.546 C 145.707 43.358 144.999 42.697 144.29 42.13 C 141.363 39.817 138.011 38.4 134.328 37.834 C 133.478 37.692 132.581 37.834 131.637 37.456 C 132.298 36.465 133.1 35.804 133.808 35.001 C 136.594 31.791 137.727 27.966 138.388 23.858 C 138.813 15.832 136.122 9.363 129.323 4.783 C 125.026 2.092 120.352 1.289 115.347 2.092 C 109.445 3.083 105.007 6.247 101.985 11.393 C 99.247 16.493 98.302 21.828 99.861 27.493 C 101.23 31.129 102.93 34.576 105.951 37.22 C 105.432 37.74 105.054 37.645 104.724 37.645 C 99.908 37.881 95.564 39.392 92.023 42.745 C 91.22 43.5 90.276 43.689 89.237 43.641 C 85.885 43.641 82.485 43.358 79.133 43.689 C 74.27 44.208 70.682 41.469 66.479 39.675 C 72.523 37.173 75.167 35.095 77.669 31.082 C 78.991 28.485 79.936 25.794 80.266 22.914 C 80.313 21.167 80.266 19.42 80.266 17.72 C 80.172 16.02 79.606 14.415 79.133 12.81 C 76.913 7.616 73.278 3.886 68.132 1.572 C 60.53 -1.874 50.19 0.534 44.902 6.955 C 40.605 12.149 39.614 18.145 40.322 24.566 C 40.652 27.305 41.974 29.713 43.391 32.026 C 43.863 32.829 43.958 33.254 42.777 33.396 C 38.056 33.915 34.137 36.04 31.067 39.676 C 30.407 40.478 29.604 40.856 28.613 40.856 C 27.904 40.856 27.196 40.856 26.488 40.95 C 14.968 42.65 8.358 54.218 8.404 65.172 C 8.499 71.923 8.546 124.899 8.452 140.15 C 8.452 142.463 8.441 143.769 6.034 143.816 C 4.287 143.863 2.314 142.274 0.661 143.219 C 0.605 143.325 0.558 143.435 0.519 143.549 L 0.519 145.06 C 1.276 146.389 2.095 147.681 2.975 148.932 C 5.099 148.507 7.271 148.837 9.395 148.79 C 29.557 148.648 49.718 148.696 69.879 148.696 C 70.776 148.696 71.626 148.837 72.476 149.026 C 73.042 149.121 73.609 149.168 74.223 149.073 C 80.597 148.979 86.971 148.365 93.345 148.743 C 98.066 149.026 102.788 149.073 107.51 149.073 L 159.635 149.073 C 161.052 149.168 162.421 149.073 163.838 149.215 C 164.31 149.168 164.687 149.073 165.112 148.837 C 166.009 148.601 166.859 148.696 167.756 148.696 L 231.119 148.696 C 232.111 148.696 233.15 148.743 234.141 148.601 C 234.472 148.507 234.802 148.365 235.086 148.271 C 235.605 146.524 236.124 144.73 236.219 142.888 M 45.516 17.484 C 45.563 17.342 45.61 17.154 45.657 17.012 C 46.035 13.942 47.499 11.488 49.671 9.362 C 54.581 4.689 61.002 3.697 66.999 6.624 C 72.806 9.457 75.828 15.312 75.073 22.394 C 74.742 28.863 68.935 34.246 63.08 35.426 C 56.092 37.267 48.16 32.451 46.13 25.133 C 45.232 22.631 44.855 20.081 45.516 17.484 M 36.78 98.553 L 36.733 121.358 C 36.733 128.251 36.733 135.098 36.78 141.991 C 36.78 142.747 36.45 143.03 35.741 143.03 C 34.451 142.975 33.16 142.943 31.869 142.935 L 31.539 142.983 C 25.826 143.03 20.113 143.03 14.399 143.077 C 14.116 143.077 13.786 143.124 13.692 142.747 C 13.361 133.823 13.55 124.899 13.502 115.975 C 13.502 113.851 13.597 111.726 13.644 109.601 C 13.644 104.03 13.455 98.506 13.644 92.934 C 13.786 88.449 17.044 84.86 21.434 83.633 C 26.345 82.263 31.397 83.775 34.089 87.363 C 34.797 88.307 35.458 89.299 35.789 90.432 C 37.157 93.029 36.874 95.814 36.779 98.552 M 65.155 142.273 L 40.415 142.273 L 40.415 106.342 L 65.11 106.342 L 65.11 142.273 L 65.155 142.273 Z M 86.827 140.526 C 86.827 142.321 86.119 142.982 84.325 142.982 C 79.886 143.029 75.448 142.982 71.01 143.076 C 69.263 143.123 68.79 142.462 68.744 140.81 C 68.224 128.864 68.602 116.919 68.46 104.973 C 68.413 102.565 68.413 102.518 65.958 102.518 L 44.288 102.518 C 43.297 102.518 42.258 102.612 41.502 101.81 C 41.455 100.157 41.408 98.505 41.408 96.9 C 41.455 94.727 41.266 92.556 40.747 90.478 C 40.086 89.864 39.661 87.078 40.18 86.512 C 40.416 86.276 40.7 86.229 40.983 86.417 C 43.108 87.692 45.563 87.928 47.829 88.684 L 50.52 88.825 C 55.62 88.778 60.341 87.031 65.252 85.993 C 68.982 85.19 72.712 84.104 76.583 84.34 C 82.249 84.67 86.263 88.59 86.593 94.208 C 86.687 95.672 86.687 97.135 86.735 98.646 L 86.735 102.565 C 86.735 104.218 86.782 105.87 86.782 107.523 C 86.829 118.524 86.829 129.525 86.829 140.526 M 87.962 85.096 C 86.499 84.34 85.507 82.971 83.996 82.263 C 82.249 81.46 80.644 80.516 78.614 80.468 C 76.158 80.468 75.639 79.382 76.584 77.068 C 77.197 75.652 76.725 74.141 76.867 72.725 C 76.206 70.884 74.931 69.42 73.987 67.767 C 73.042 67.815 72.665 67.39 72.617 66.398 C 72.57 64.557 72.051 62.81 71.342 61.158 C 70.257 58.513 68.746 56.011 66.149 55.303 C 64.119 54.736 63.221 56.153 63.363 58.324 C 63.363 58.608 63.41 58.891 63.41 59.221 C 64.307 59.694 64.638 60.732 65.252 61.441 C 65.866 62.149 65.062 62.291 64.591 62.338 C 63.269 62.527 61.899 62.621 60.577 62.81 C 59.68 63.33 58.594 62.857 57.697 63.47 C 55.1 64.085 52.504 64.037 49.907 63.47 C 47.074 61.866 46.791 59.221 47.074 56.341 C 47.734 55.775 47.168 54.783 47.734 54.169 C 48.301 52.989 48.915 51.809 49.482 50.629 C 49.387 50.109 49.199 49.589 48.726 49.259 C 43.108 50.014 41.361 55.539 41.927 59.741 C 42.022 60.496 42.211 61.251 42.399 62.007 C 43.91 66.067 46.932 68.381 51.039 69.42 C 54.675 69.703 58.075 68.712 61.522 67.815 C 71.862 65.076 72.051 73.764 72.051 73.811 C 71.956 76.738 71.484 78.769 69.029 79.807 C 66.999 80.657 64.827 80.893 62.702 81.318 C 61.522 81.648 60.342 82.027 59.114 81.79 C 53.164 83.585 47.168 84.198 41.455 81.177 C 35.884 78.249 32.343 73.527 30.737 67.39 C 29.604 63.093 30.123 58.702 30.312 54.358 C 30.642 50.439 32.059 46.945 34.372 43.782 C 38.245 38.494 44.949 36.794 51.276 39.627 C 55.242 40.807 58.83 42.932 62.608 44.49 C 64.732 45.34 66.951 46.143 69.076 46.945 C 76.725 49.542 80.502 55.161 81.636 62.905 C 82.155 65.265 81.73 67.72 82.533 70.034 C 83.618 73.103 83.902 76.455 86.073 79.099 L 86.215 79.241 C 87.679 80.657 88.293 82.546 88.907 84.387 C 89.19 85.143 88.859 85.567 87.962 85.096 M 105.29 142.982 L 95.658 142.982 L 95.658 120.271 L 105.29 120.271 L 105.29 142.982 Z M 128.237 142.698 L 109.162 142.698 L 109.162 120.318 L 128.237 120.318 L 128.237 142.698 Z M 121.344 36.37 C 116.15 37.315 111.523 35.898 107.982 31.79 C 107.746 31.554 107.651 31.177 107.462 30.893 C 105.857 28.863 104.771 26.643 104.677 24 C 104.11 18.712 105.149 14.037 109.256 10.307 C 113.317 6.624 119.597 5.633 124.838 7.994 C 129.701 10.166 133.147 15.595 133.053 20.884 L 133.053 23.386 C 133.242 26.313 131.825 28.626 130.22 30.893 C 128.048 33.963 124.885 35.709 121.344 36.37 M 141.41 142.558 L 131.778 142.558 L 131.778 119.847 L 141.41 119.847 L 141.41 142.558 Z M 167.095 31.224 C 166.576 30.704 165.868 30.279 165.443 29.713 C 163.46 27.116 162.327 23.905 162.327 20.411 C 162.327 11.96 169.22 5.066 177.672 5.066 C 186.123 5.066 193.017 11.96 193.017 20.411 C 193.017 22.347 192.686 24.141 192.025 25.841 C 191.931 26.313 191.695 26.785 191.459 27.163 C 188.956 32.263 183.715 35.756 177.672 35.756 L 177.247 35.756 C 174.98 35.804 172.856 35.284 170.92 34.198 C 169.551 33.49 168.276 32.499 167.095 31.224 M 169.22 101.622 C 169.126 101.764 168.984 101.858 168.842 101.952 C 168.323 111.348 168.181 140.15 168.181 140.15 C 168.181 140.15 168.465 142.369 166.293 142.369 C 161.524 142.416 156.708 142.369 151.939 142.416 C 150.995 142.416 150.334 142.322 150.381 141.094 C 150.428 133.964 150.287 102.566 150.476 98.459 C 150.523 96.05 150.239 93.689 150.806 91.282 C 151.75 87.127 156.283 83.727 161.005 83.632 C 164.357 83.586 167.568 84.294 170.778 85.097 C 175.736 86.277 180.599 87.741 185.698 88.118 C 186.029 88.118 187.492 88.213 187.54 88.213 C 187.917 88.213 193.914 87.41 195.047 87.221 C 195.566 87.127 196.18 87.599 196.18 88.165 C 196.086 91.801 196.652 95.437 195.897 99.072 L 195.897 100.111 C 195.472 101.244 194.622 101.575 193.394 101.527 C 185.43 101.48 177.467 101.48 169.503 101.527 C 169.409 101.575 169.314 101.622 169.22 101.622 M 196.511 141.188 L 171.817 141.188 L 171.817 105.257 L 196.511 105.257 L 196.511 141.188 Z M 222.243 143.077 C 216.624 142.983 211.006 142.983 205.434 142.935 C 203.829 142.935 202.176 142.983 200.571 142.983 C 199.674 142.888 199.816 142.227 199.816 141.661 C 199.816 129.621 200.146 95.011 200.146 95.011 C 200.146 95.011 199.532 83.208 211.856 83.208 C 216.435 83.208 220.874 85.474 222.573 89.346 C 223.14 90.573 223.801 94.398 223.848 94.964 C 223.848 110.451 223.848 125.938 223.896 141.424 C 223.896 142.747 223.565 143.124 222.243 143.077"
     fill="#0C0202"
     id="path61" />
  <path
     d="M102.788 98.364c1.133-3.21 3.541-5.194 6.516-6.61 6.468-3.07 12.984-5.95 19.405-9.113 5.147-2.502 10.576-4.532 15.109-8.026 3.683-2.833 6.138-6.422 5.902-11.38-.047-1.038.189-2.124.283-3.163.897 2.503.189 4.958-.047 7.46-.614 6.516-4.391 10.577-10.057 13.457-9.018 4.58-18.225 8.782-27.337 13.173-3.164 1.51-5.714 3.588-6.611 7.082-.613 2.408-.188 4.911-.236 7.413-1.794 1.039-3.682.755-5.524.236-.378-.378-.142-.661.189-.803 1.228-.472 1.228-1.511 1.228-2.597-.048-2.455-.284-4.957 1.18-7.129"
     fill="#045758"
     id="path63" />
  <path
     d="M160.721 125.56h-.047v.047c.095 0 .236-.047.047-.047"
     fill="#8A0408"
     id="path65" />
  <path
     d="M177.483 81.272c.755-.567 1.605-1.039 2.172-1.747 1.699-2.125 3.73-2.974 6.563-2.833 7.271.378 12.512-3.4 16.619-8.97 2.456-3.353 3.164-7.13 2.975-11.19-.047-.615-.283-1.323.283-1.842.142.094.425-.378.803 1.18.519 3.21.567 6.422-.094 9.585-.473 2.314-1.275 4.533-2.456 6.516-.897 1.416-1.841 2.833-3.163 3.966-1.18.991-2.125 2.219-3.447 3.116-4.485 3.069-9.301 4.344-14.731 3.258-1.841-.425-3.73-.378-5.524-1.039"
     fill="#A40303"
     id="path67" />
  <path
     d="M146.321 108.704c-2.456.236-4.864.095-7.272-.047-1.038-.33-2.124-.189-3.163-.142-1.18.048-1.605-.472-1.605-1.558-.048-1.463-.095-2.974 0-4.438.236-3.21-.992-5.713-3.353-7.79-1.605-1.417-3.399-.756-1.511-1.842 1.228-.708 3.447-2.03 4.628-2.786.188-.047 1.227-.236 1.416-.236.425-.188.85-.283 1.275-.189.755.662-.095.898-.425 1.134-.661.519-.567.944 0 1.416.803.708 1.464 1.511 1.889 2.502 1.133 2.078 1.463 4.297 1.463 6.658 0 1.747.283 2.03 2.078 2.125 3.919.236 3.919.236 3.919-3.636 0-.897-.048-1.747.047-2.644 0-.85-.189-1.747.566-2.408.567 1.228.331 2.55.284 3.824-.095 3.353-.142 6.705-.236 10.057"
     fill="#0E9087"
     id="path69" />
  <path
     d="M134.753 67.108c-3.022 2.266-6.469 3.777-9.821 5.43-4.344 2.077-8.688 4.201-13.079 6.232-4.296 2.03-8.735 3.871-12.842 6.327-3.92 2.313-6.61 5.665-7.65 10.15-.046.142-.188.284-.282.426-.284-.708-.19-1.464-.048-2.172.52-4.722 2.786-8.357 6.988-10.624 6.28-3.4 12.984-5.949 19.453-8.97 4.958-2.314 10.01-4.533 14.967-6.8.52-.236 1.039-.424 1.558-.66.661-.237 1.086-.19.756.66"
     fill="#F4FBF6"
     id="path71" />
  <path
     d="M25.78 49.402c-.803 6.846-.33 13.692-.709 20.538.048 2.22.048 4.486.095 6.705 0 .708-.236 1.086-.992 1.086-4.107 0-7.649 1.558-10.718 4.155-.566-.472-.33-.992-.33-1.417.142-5.949-.189-11.898.189-17.847 0-8.97 6.043-16.478 13.74-16.903-.52 1.275-.898 2.502-1.275 3.683"
     fill="#FBCC7F"
     id="path73" />
  <path
     d="M129.512 92.84s5.382 4.863 5.288 8.499c-.047 1.699.094 3.446 0 5.146-.094 1.511.472 1.983 1.889 1.889.755-.047 1.652-.331 2.36.33a36 36 0 0 1-7.129 0 216 216 0 0 0-.472-5.477c-.378-3.4-1.983-5.855-5.194-7.177-.33-.141-.708-.188-.897-.802 2.219-1.275 4.155-2.408 4.155-2.408"
     fill="#045155"
     id="path75" />
  <path
     d="M186.548 69.232c-.189.047-.425.047-.614.094-1.747.284-3.494.048-5.241.142-.613.047-1.274-.189-1.888.189-2.172.803-3.589 2.36-4.297 4.58-1.936 1.228-3.494.142-5.005-.897-.85-.614-1.841.472-2.88 1.133-.614.378-1.888 2.502-1.133-1.605.472-3.4 4.108-6.28 7.932-5.808 2.172.236 4.297.756 6.422 1.228 1.983.425 3.966.708 5.949.566.425-.094.802-.283.755.378"
     fill="#FCFBDA"
     id="path77" />
  <path
     d="M86.97 62.197c1.795 3.163 3.117 6.61 6.28 8.735 2.267 1.51 4.675 2.738 7.319 3.352.566.142 1.133.236 1.511.803-.897.897-2.22.991-3.21 1.7-1.937.66-3.59-.095-5.195-1.04-2.266-1.368-4.06-3.257-5.571-5.382-.708-.991-.52-2.172-.944-3.163-.047-.095-.047-.189-.047-.33-.378-1.606-.85-3.117-.142-4.675"
     fill="#08A69B"
     id="path79" />
  <path
     d="M206.19 55.068c0-.142-.047-.237-.047-.378-1.511-6.28-4.816-11.19-10.907-13.881-2.172-1.417-4.675-1.464-7.13-1.653-.614-.047-1.322.189-1.888-.33 11.001-4.392 19.264 4.768 20.302 13.786.047.567.142 1.18.189 1.747-.189.236.189.897-.519.709"
     fill="#F7F8F1"
     id="path81" />
  <path
     d="M106.424 42.65c-3.4 1.652-7.13 2.597-10.246 5.005-4.202 3.258-7.224 7.318-8.404 12.606-.095.33-.237.661-.331.992-.614-.472-.047-1.18-.472-1.653 1.038-6.516 4.013-11.757 9.868-15.109 1.888-1.086 3.919-1.652 6.043-1.936 1.181-.047 2.314-.236 3.542.095"
     fill="#F0F9F4"
     id="path83" />
  <path
     d="M150.003 60.12c-.377-3.494-1.652-6.563-3.871-9.302-.378-.425-.803-1.464-1.322-.52-.331.52-.189.614-.709.284-1.133-.755-2.407-1.228-3.73-1.51-.188-.048-.33-.048-.519-.048-2.597.236-5.099.66-7.224 2.408-.472.378-1.18.66-.991 1.464 4.107 1.558 7.507 3.682 7.129 8.829.189-.33.331-.661.567-1.039.189.708.141 1.558.991 1.794 1.133.284 2.267.567 3.447.661 1.889.142 3.588-1.086 3.824-2.55.048-.377-.188-.944.378-1.038.661-.094.661.567.756.992.613 2.738-.425 4.957-2.078 6.987-2.219 2.739-5.099 4.77-8.215 6.28-10.435 5.005-20.964 9.82-31.351 14.967-3.825 1.889-7.319 4.391-8.357 9.019-.237.944-.945 1.652-1.89 1.605-1.368-.095-2.549.472-3.776.661-1.228.189-1.606.566-1.842 1.558-.566 2.077-.141 4.202-.236 6.28-.047.755.661.897 1.275.944 1.275.094 2.597.047 3.872.047.33 0 .613-.047.85-.047.991.094 2.03.142 3.021-.047.614-.756 2.361.141 2.172-1.795-.283-2.644-.047-5.288.52-7.932.047-.047.141-.094.188-.189 1.983-3.918 5.336-6.185 9.207-7.885 5.572-2.455 11.049-5.099 16.573-7.696 4.722-2.219 9.538-4.25 13.929-7.082 7.035-4.627 7.885-9.443 7.412-16.1"
     fill="#0CAC97"
     id="path85" />
  <path
     d="M87.207 67.155c1.18 3.352 3.447 5.807 6.28 7.837 1.605 1.134 3.446 1.795 5.43 1.795-.52.377-1.181.613-1.512 1.133-1.369 1.936-2.832 1.416-4.39.283-3.778-2.738-5.808-6.374-5.808-11.048"
     fill="#075857"
     id="path87" />
  <path
     d="M165.632 74.331c.755 1.322 1.416-1.652 2.03-2.313.33-.378.708-.897 1.086-.283 1.369 2.171 3.399 2.69 5.76 2.502 0 1.416 0 2.833-.047 4.25-.331.472-.803.519-1.275.424-2.361-.66-4.91-1.086-6.138-3.588-.472-.944-.803.094-1.416-.047.566.283-.095.708 0-.945"
     fill="#FBD693"
     id="path89" />
  <path
     d="M157.511 58.609c-.472 1.369-.992 2.738-1.417 4.107-.141.378-.141.85-.661.898.095-8.263 4.438-14.307 12.276-17.14l1.983-.708c.897.756-.189.708-.425.85-2.927 1.747-5.854 3.447-8.074 6.09-1.51 1.795-3.021 3.59-3.682 5.903"
     fill="#F1EDD7"
     id="path91" />
  <path
     d="M165.301 74.615c1.417-1.322 1.417-1.322 2.219.52.378.849.992 1.51 1.795 1.84 1.652.662 3.257 1.653 5.193 1.464-.33.756.945 1.464.095 2.267-1.936-.237-3.825-.52-5.666-1.134-2.455-.708-3.589-2.313-3.636-4.957"
     fill="#E7B861"
     id="path93" />
  <path
     d="M80.125 48.268h6.043c-.897 1.653-1.747 3.164-2.644 4.816-1.133-1.558-1.936-3.258-3.4-4.816"
     fill="#F3DDA8"
     id="path95" />
  <path
     d="M191.836 50.11c.284-.047.567-.047.85-.095 3.164 2.928 3.4 6.752 3.164 10.718 0 .425-.237.661-.614.756-.284 0-.331-.236-.425-.378.566-4.108.141-7.932-2.975-11.001"
     fill="#D06B4F"
     id="path97" />
  <path
     d="M194.811 61.064a3 3 0 0 0 .425.378c-1.7 3.918-4.25 6.846-8.641 7.743-.236-.094-.472-.236-.708-.33 4.108-1.275 7.413-3.495 8.924-7.791"
     fill="#EEB899"
     id="path99" />
  <path
     d="M154.961 50.44c-.472.85-.944 1.747-1.558 2.928-.85-1.606-1.605-2.88-2.314-4.202.048-.33.236-.614.567-.52 1.18.378 2.55.52 3.305 1.794"
     fill="#D27C26"
     id="path101" />
  <path
     d="M154.961 50.44c-1.275-.472-2.361-1.51-3.872-1.274-.755-.85-.141-.898.52-.898h4.863c-.331.945-.992 1.511-1.511 2.172"
     fill="#F1D79B"
     id="path103" />
  <path
     d="M142.166 87.788c-2.125-.189-3.542 1.416-5.336 2.077h-1.463c1.322-1.038 2.785-1.7 4.249-2.502.992-.52 1.841-.472 2.55.425"
     fill="#0E9278"
     id="path105" />
  <path
     d="M57.32 62.858c-1.086 1.086-6.8 1.086-7.791 0 2.644.614 5.194.614 7.79 0"
     fill="#7C0C0B"
     id="path107" />
  <path
     d="M134.753 67.107c0-.519-.378-.613-.756-.708.945-.566 1.936-1.086 2.881-1.652.991-.614 1.416-1.606 1.794-2.645.614.52.283 1.087 0 1.559-.945 1.605-2.125 2.833-3.919 3.446"
     fill="#B7E7DF"
     id="path109" />
  <path
     d="M206.426 54.784c-.378-4.013-2.408-7.224-4.958-10.151-1.7-1.936-3.73-3.447-6.279-4.06h-.095c-2.502-1.842-6.988-1.936-8.924-1.795-37.489 8.877-34.467 38.811-35.836 41.786-1.181 1.18-1.889 2.644-2.691 4.06-.142.237-.095.614.141.803a.59.59 0 0 0 .803-.094c.897-1.228 3.163-3.305 3.163-3.305.048-.095 4.864-2.786 7.602-2.88.708 0 1.747 0 1.416-1.181-1.463-5.477.52-8.216.992-9.349 1.369-1.605 3.4-2.833 2.975-5.43.141-.33 2.502-8.12 6.657-8.12.755 0 2.927.047 2.975 2.785l.047.047c-.52 1.983-1.7 2.786-3.116 3.872 1.227-.094 2.171-.189 3.116-.236 3.022.803 6.043 1.558 9.112 1.983 2.55.33 4.769-.897 5.761-3.069 1.038-2.408.708-4.721-.52-6.94-.472-.85-.85-1.795-1.227-2.74-.567-1.463-.284-1.84 1.322-1.51.991.189 1.936.567 2.88.897.236.142.472.189.661.095 0 .047.047.094.047.141 2.739 3.21 3.541 6.846 2.55 10.907-1.7 3.919-4.439 6.705-8.688 7.696-.283.047-.519.189-.803.283-2.219.284-4.391-.283-6.563-.047-2.785.661-4.343 2.55-4.957 5.241-.095 1.228-.047 2.455-.047 3.683 0 .897.283 1.794.566 2.644.944.378 1.842.755 2.88.567 1.133-.095 2.031-.614 2.692-1.511 1.652-2.125 3.777-2.739 6.374-2.597 3.824.189 7.365-.803 10.482-3.07 5.901-4.296 9.868-9.631 9.254-17.374.047-.756.094-1.417.236-2.03m-17.045 5.666c-.142.047-.236.047-.33.047.094 0 .236-.047.33-.047"
     fill="url(#d)"
     id="path111" />
  <path
     d="M145.66 43.075c4.674 0 9.348-.047 14.023-.047.377 0 .708 0 .991.283-4.721 0-9.49.047-14.212.047-.283 0-.614-.047-.802-.283"
     fill="#FCE1AB"
     id="path113" />
  <path
     d="M90.795 108.704h5.76c-1.888.425-3.824.047-5.76.236-.094-.094-.094-.141 0-.236"
     fill="#09A495"
     id="path115" />
  <path
     d="M60.2 62.197c-.803.803-1.842.755-2.88.661.897-.614 2.03-.142 2.88-.661"
     fill="#7C0C0B"
     id="path117" />
  <path
     d="M46.696 55.776c.095-.756-.425-1.7.661-2.172-.566.614 0 1.605-.661 2.172"
     fill="#7E0E07"
     id="path119" />
  <path
     d="M106.376 42.603c-1.18-.048-2.36-.048-3.494-.095 1.181-.378 2.361-.236 3.542-.236 0 .142 0 .236-.048.33"
     fill="#21D0B6"
     id="path121" />
  <path
     d="M178.805 69.61c2.361-.756 4.769-.142 7.177-.33-2.408.802-4.816.141-7.177.33"
     fill="#EEB899"
     id="path123" />
  <path
     d="M210.77 49.685c.802 6.846.33 13.692.708 20.539-.047 2.219-.047 4.485-.095 6.704 0 .709.237 1.086.992 1.086 4.108 0 7.649 1.558 10.718 4.155.566-.472.33-.991.33-1.416-.141-5.95.189-11.898-.188-17.848 0-8.97-6.044-16.478-13.74-16.903.472 1.275.85 2.503 1.275 3.683"
     fill="#FBCC7F"
     id="path125" />
  <path
     d="M122.194 107.902c2.927-2.361 2.691-7.508 2.691-7.508h-12.796s-.236 5.147 2.881 7.508H90.418v5.099a2.52 2.52 0 0 0 2.502 2.502h51.04c1.416 0 2.549-1.133 2.549-2.502v-5.052h-24.315z"
     fill="#FDFCD8"
     id="path127" />
  <path
     d="M59.255 75.37c1.417-.189 6.705.33 6.705-3.824 0 0 6.516 4.013 1.794 8.168 0 0-1.652 1.416-7.79 2.266l-3.4.52 1.558-4.108z"
     fill="#E7B861"
     id="path129" />
  <path
     d="M65.582 71.215s3.73 2.408 3.825 4.91c.141 2.503-11.238 3.306-11.238 3.306l1.559-4.108s6.657.425 5.949-3.777z"
     fill="#FBD693"
     id="path131" />
  <path
     d="M41.691 81.933c-9.915-3.258-20.397-24.269-5.193-37.442 14.117-12.229 39.944 4.297 42.588 15.062 3.069 12.7 7.035 19.122 10.482 24.694.472.755-.85 1.274-1.606.85-2.927-1.7-7.413-4.675-12.559-4.675 0 0 3.872-9.632-3.163-12.842 0 0-1.228-12.89-7.508-12.04 0 0-3.446 2.172 1.275 6.751 0 0-19.642 6.091-19.642-3.163s5.62-10.293.567-10.104c-5.052.189-8.782 12.418-2.314 17.753 6.47 5.335 15.676.283 16.432 8.31l.802 5.949c.047-.047-8.83 4.58-20.16.897"
     fill="url(#e)"
     id="path133" />
  <path
     d="M58.217 81.178s-2.172-5.194-4.297-5.005c-2.077.189-20.822 3.258-24.269-21.2 0 0-6.09 22.191 13.079 27.527 10.718 3.021 15.487-1.322 15.487-1.322"
     fill="#A40303"
     id="path135" />
  <path
     d="M197.833 87.41c0-1.18-1.228-1.936-2.267-1.416-2.219 1.038-7.743 2.785-20.208 2.36-17.753-.566-24.316-2.644-24.646 12.324-.284 14.778-.331 35.222-.095 41.171.047.85.708 1.511 1.558 1.511h14.401c.85 0 1.558-.708 1.558-1.558l.283-38.669c0-.85.709-1.558 1.559-1.558h24.74c.897 0 1.653-.756 1.558-1.7-.141-2.078-.283-5.43.189-6.705.473-1.274 1.37-3.871 1.37-5.76"
     fill="url(#f)"
     id="path137" />
  <path
     d="m159.919 143.549 8.498-.094c.095 0 .189-.095.189-.189l.284-41.172c0-.094.094-.189.188-.189l27.291-.283c.094 0 .189-.094.189-.189v-8.688c0-.141-.142-.236-.284-.141-1.227.85-7.176 3.683-31.209-.095-.142 0-4.674-.33-4.958 6.091-.283 6.28-.283 41.927-.283 44.713-.047.189 0 .236.095.236"
     fill="#9D0101"
     id="path139" />
  <path
     d="M146.085 50.44c-.095-.33-.378-.519-.614-.802-1.086-1.417-2.597-2.361-4.014-3.4-1.605-1.369-3.305-2.502-5.24-3.21-.048 0-.048-.048-.048-.048a10 10 0 0 0-3.163-.66c-7.649-.52-15.298-.331-22.947-.378-1.227 0-2.455.047-3.683.33l-.189.189.095.095c-1.369.047-2.502.85-3.73 1.227-4.391 1.37-8.027 4.013-10.907 7.507-1.983 2.408-3.541 5.1-4.108 8.263-.094.425-.377-.52-.566 0-.047.283-.142.614-.19.897-.188.52-.094 1.086-.094 1.605 2.503 7.508 7.838 11.568 15.44 12.985 2.455-.614 4.438-2.22 7.129-3.07-2.219-.85-4.154-1.463-5.901-2.454-3.589-2.078-5.477-5.478-5.053-8.972.52-3.871 3.07-6.515 7.319-7.648.755 0 1.511.047 2.266.047.661 0 .945.33.992.944.094 1.37 0 2.267-1.7 2.833-4.061 1.322-4.863 5.572-1.794 8.452.991.944 2.313 1.369 3.541 1.888 1.653.661 3.305 1.275 4.958 1.936.661.283 1.416.472 2.077.142 3.919-1.842 8.027-3.353 11.804-5.525 1.275-.519 2.644-.897 3.872-1.558 2.03-1.086 2.124-2.219.283-3.635-1.275-.992-2.739-1.747-4.108-2.644.189-1.18-1.133-2.644.661-3.541 1.086.236 2.125.472 3.211.708 0 0 8.215 2.502 7.129 8.83-.047.14-.047.235-.094.377-.095 2.691-2.314 3.588-4.155 4.721-5.43 3.542-11.473 5.902-17.186 8.782-5.289 2.644-10.766 4.864-16.006 7.602-4.533 2.36-8.358 5.336-9.821 10.246-.095.33-.19.708-.284 1.086a8 8 0 0 0-.141.85c-.047.189-.047.377-.095.566v.33c-.33 3.731-.472 11.521-.472 11.521l7.885.048c-.378-1.606.614-9.585.614-9.585v-.047c.142-.236.236-.52.33-.803.378-1.416 1.039-2.597 1.984-3.683 1.746-2.03 3.966-3.541 6.326-4.769 6.894-3.54 14.071-6.42 20.964-9.915 4.863-2.455 10.01-4.39 14.401-7.554 2.974-2.172 5.666-4.675 6.327-8.64.047-.378.094-.803.094-1.181.283-.142.425-.236.425-.236s.33-6.61-3.824-11.049m-36.923 6.091v-.094z"
     fill="url(#g)"
     id="path141" />
  <path
     d="M133.997 90.101s4.58 3.305 4.769 8.782.236 9.066.236 9.066l7.507-.047V93.359s-1.18-7.27-6.279-6.327z"
     fill="url(#h)"
     id="path143" />
  <path
     d="M128.237 120.319h-19.075v8.074h19.075z"
     fill="#CE5400"
     id="path145" />
  <path
     d="M128.048 128.346h-19.075v14.306h19.075z"
     fill="#014341"
     id="path147" />
  <path
     d="M141.594 142.446v-22.617h-8.546v22.617zm-42.678-22.127v11.332l4.722 3.022v8.404l1.652-.094v-22.664zM65.11 106.343H40.416v5.147H65.11zm131.353-.991H171.77v5.146h24.693zm-24.658 5.17v30.69h5.949v-30.69z"
     fill="#CE5400"
     id="path149" />
  <path
     d="M118.794 37.692c7.901 0 14.306-6.405 14.306-14.306S126.695 9.08 118.794 9.08s-14.306 6.405-14.306 14.306 6.405 14.306 14.306 14.306"
     fill="#1ED9B7"
     id="path151" />
  <path
     d="M104.488 19.987s2.313 8.073 13.787 8.073 14.778-7.224 14.778-7.224 1.889 16.148-12.559 16.809c-19.311.944-16.006-17.659-16.006-17.659"
     fill="#005B5C"
     id="path153" />
  <path
     d="M178.474 35.662c7.901 0 14.307-6.405 14.307-14.306s-6.406-14.307-14.307-14.307-14.306 6.406-14.306 14.307c0 7.9 6.405 14.306 14.306 14.306"
     fill="#FF6035"
     id="path155" />
  <path
     d="M167.52 31.224s7.98 2.691 14.495-6.705c6.516-9.396 2.503-16.242 2.503-16.242s14.165 8.924 7.271 19.925c-9.443 15.014-24.269 3.022-24.269 3.022"
     fill="url(#i)"
     id="path157" />
  <path
     d="M47.357 13.518s-6.752 18.272 9.68 21.86c0 0 14.022 4.439 17.233-14.967 0 0-4.58 11.19-15.912 6.658-11.331-4.533-11-13.551-11-13.551"
     fill="#F99F39"
     id="path159" />
  <path
     opacity=".61"
     d="M59.68 29.949c-6.468-.992-11.048-4.958-13.55-10.624-.567 5.666.566 13.787 10.953 16.006 0 0 11.71 3.683 16.195-10.434-4.674 5.477-10.434 5.571-13.598 5.052"
     fill="#C95C00"
     id="path161" />
  <path
     d="M239.335 142.841c-.472 2.313-1.086 4.533-1.794 6.752H1.794A46 46 0 0 1 0 142.841z"
     fill="#0C0202"
     id="path163" />
</svg>
